<svg width="120" height="122" viewBox="0 0 120 122" fill="none" xmlns="http://www.w3.org/2000/svg">
<path d="M0.166938 81.1767L0 47.3014C0 47.3014 18.0773 53.741 30.4286 53.9539L30.6286 75.6638C30.6286 75.6638 16.092 75.6588 0.559793 81.4336" fill="black"/>
<path d="M36.801 53.755L46.7573 53.555L46.9572 75.6638H37.1989L36.801 53.755ZM62.8873 58.0354L56.4587 64.8948L63.3011 71.8342L69.6358 64.6539L62.8873 58.0354ZM53.1289 37.509L74.5139 37.4091L74.7139 47.7542H53.4268L53.1289 37.509ZM80.9795 67.8457L65.7602 82.9651L73.2204 90.2254L87.5431 75.6638L80.9795 67.8457Z" fill="black"/>
<path d="M46.9439 0.167937L80.8192 0C80.8192 0 74.0817 18.9729 73.8688 31.3223L53.2525 31.4223C53.2525 31.4223 52.4618 16.091 46.6869 0.558792M119.552 97.2167L95.7806 121.352C95.7806 121.352 87.0809 103.195 78.4741 94.3348L92.9417 79.6463C92.9417 79.6463 104.37 89.8985 119.455 96.7569" fill="black"/>
</svg>
