<svg width="133" height="95" viewBox="0 0 133 95" fill="none" xmlns="http://www.w3.org/2000/svg">
<path d="M66.1883 14.0941L30.3364 83.04L35.8521 88.5556L38.6099 94.0713H41.3678L37.2613 85.8557L66.1883 25.1255L96.5244 88.5556L102.04 83.04L66.1883 14.0941Z" fill="black"/>
<path d="M93.7666 94.0713H91.0088L104.798 72.0087L107.556 74.7665L93.7666 94.0713Z" fill="black"/>
<path d="M79.9773 0.304932V5.8206L66.1881 25.1254L52.3989 5.8206V0.304932H79.9773Z" fill="black"/>
<path d="M60.7075 0.304932L66.1873 8.57843V0.304932H60.7075Z" fill="black"/>
<path d="M66.1885 8.57837L75.0935 9.85525L68.9463 16.8519L66.1885 8.57837Z" fill="black"/>
<path d="M60.1963 11.6396L66.1891 8.57837L61.589 18.0212L60.1963 11.6396Z" fill="black"/>
<path d="M52.3989 0.304932H55.1568L66.1881 25.1254L52.3989 5.8206V0.304932Z" fill="black"/>
<path d="M79.9776 0.304932H77.2198L66.1885 25.1254L79.9776 5.8206V0.304932Z" fill="black"/>
<path d="M49.7597 14.0941L46.8833 25.1255H55.1568V16.8519L49.7597 14.0941Z" fill="black"/>
<path d="M66.188 38.9146L63.4302 49.9459L66.188 52.7037V38.9146Z" fill="black"/>
<path d="M115.828 69.2507L102.039 44.4302L96.5235 47.1881L98.8015 38.9146L77.2187 5.82056L69.4443 20.5667L99.2813 83.0399L93.7657 94.0712H102.039L115.828 69.2507Z" fill="#161616"/>
<path d="M41.7259 66.4929L33.0939 83.0399L38.6095 94.0712H30.336L16.5469 69.2507L31.6322 41.893L35.8517 44.4302L35.4932 35.9913L44.2907 22.5054L52.3987 22.3676L49.7512 14.0941L55.1566 5.82056L62.9336 20.575L47.6001 49.9459H66.1879V38.9146L79.9771 66.4929H41.7259Z" fill="#161616"/>
<path d="M30.3367 94.0714H5.04736L9.43232 86.184L11.1698 83.04L13.9 78.1035L13.7897 69.2509H16.5475L30.3367 94.0714Z" fill="black"/>
<path d="M79.9778 66.4929L77.22 72.0086H41.3682L44.3908 66.4929H79.9778Z" fill="black"/>
<path d="M27.5783 94.0714H0L4.38496 86.184L6.12239 83.04L8.85265 78.1035L10.1488 75.7869L13.7892 69.2509L18.4223 77.5795L19.3876 79.317L22.5315 84.9705V84.9981L27.5783 94.0714Z" fill="black"/>
<path d="M22.5319 84.9703L13.7896 83.0398L19.388 79.3168L22.5319 84.9703Z" fill="black"/>
<path d="M13.7888 83.0398H6.12207L8.85233 78.1033L13.7888 83.0398Z" fill="black"/>
<path d="M13.7891 94.0713H8.27344L13.7891 83.0399V94.0713Z" fill="black"/>
<path d="M102.041 94.0714H127.33L122.945 86.184L121.207 83.04L118.477 78.1035L118.588 69.2509H115.83L102.041 94.0714Z" fill="black"/>
<path d="M104.799 94.0714H132.377L127.992 86.184L126.255 83.04L123.525 78.1035L122.228 75.7869L118.588 69.2509L113.955 77.5795L112.99 79.317L109.846 84.9705V84.9981L104.799 94.0714Z" fill="black"/>
<path d="M109.845 84.9703L118.587 83.0398L112.989 79.3168L109.845 84.9703Z" fill="black"/>
<path d="M118.587 83.0398H126.254L123.524 78.1033L118.587 83.0398Z" fill="black"/>
<path d="M118.587 94.0713H124.103L118.587 83.0399V94.0713Z" fill="black"/>
</svg>
