<svg width="130" height="67" viewBox="0 0 130 67" fill="none" xmlns="http://www.w3.org/2000/svg">
<path d="M129.281 0H122.237C121.84 0 121.518 0.322991 121.518 0.721422V8.04664C121.518 8.44507 121.84 8.76806 122.237 8.76806H129.281C129.678 8.76806 130 8.44507 130 8.04664V0.721422C130 0.322991 129.678 0 129.281 0Z" fill="#000001" fill-opacity="0.996"/>
<path d="M7.41902 0.306341L1.2977 0.359933C0.574721 0.366263 -0.00625848 0.959383 5.09066e-05 1.6847L0.0563671 8.15877C0.0626765 8.88409 0.653885 9.46695 1.37687 9.46062L7.49819 9.40703C8.22117 9.4007 8.80215 8.80758 8.79584 8.08225L8.73953 1.60819C8.73322 0.882869 8.14201 0.300011 7.41902 0.306341Z" fill="#000001" fill-opacity="0.996"/>
<path d="M94.2293 56.271H24.6427C24.4664 56.2724 24.2924 56.311 24.132 56.3844C23.9716 56.4578 23.8285 56.5643 23.7119 56.697C23.5953 56.8297 23.5079 56.9855 23.4555 57.1543C23.403 57.3232 23.3866 57.5012 23.4073 57.6769L24.1264 64.0957C24.1444 64.2699 24.1259 64.4459 24.0722 64.6125C24.0184 64.7791 23.9306 64.9326 23.8143 65.0632C23.698 65.1938 23.5558 65.2986 23.3969 65.3709C23.2379 65.4432 23.0656 65.4814 22.891 65.483L16.2163 65.5385C16.0517 65.5385 15.8886 65.506 15.7365 65.4428C15.5844 65.3796 15.4462 65.2869 15.3298 65.1701C15.2133 65.0533 15.121 64.9146 15.058 64.762C14.995 64.6094 14.9625 64.4458 14.9625 64.2807L14.8519 47.3549C14.8519 47.0213 14.984 46.7014 15.2191 46.4655C15.4543 46.2296 15.7732 46.0971 16.1057 46.0971H22.301C22.4657 46.0971 22.6287 46.0645 22.7808 46.0013C22.9329 45.9381 23.0712 45.8455 23.1876 45.7287C23.304 45.6119 23.3964 45.4732 23.4594 45.3206C23.5224 45.168 23.5548 45.0044 23.5548 44.8392V29.2084C23.5547 28.8811 23.6817 28.5666 23.9089 28.3318C24.1361 28.0969 24.4457 27.9601 24.7718 27.9505L41.1451 27.4511C41.4357 27.442 41.7142 27.3319 41.9328 27.1396C42.1515 26.9472 42.2967 26.6846 42.3436 26.3967L43.2102 21.2542C43.2577 20.9633 43.4056 20.6983 43.628 20.5056C43.8504 20.3128 44.1333 20.2046 44.4271 20.1998L83.1293 19.8114C83.2955 19.8089 83.4606 19.8396 83.6148 19.9018C83.7691 19.9639 83.9095 20.0561 84.0279 20.1732C84.1463 20.2902 84.2403 20.4297 84.3044 20.5836C84.3686 20.7374 84.4016 20.9025 84.4016 21.0692V26.8036C84.4016 26.9688 84.434 27.1324 84.4971 27.285C84.5601 27.4376 84.6524 27.5763 84.7688 27.6931C84.8853 27.8099 85.0235 27.9025 85.1756 27.9657C85.3277 28.029 85.4908 28.0615 85.6554 28.0615H103.891C104.056 28.0615 104.219 28.094 104.371 28.1573C104.523 28.2205 104.661 28.3131 104.778 28.4299C104.894 28.5467 104.986 28.6854 105.049 28.838C105.112 28.9906 105.145 29.1542 105.145 29.3194V65.742C105.145 65.9088 105.112 66.0738 105.048 66.2277C104.983 66.3815 104.889 66.521 104.771 66.638C104.653 66.7551 104.512 66.8474 104.358 66.9095C104.204 66.9716 104.039 67.0023 103.873 66.9999L96.6816 66.8519C96.3523 66.847 96.0381 66.7124 95.8069 66.477C95.5757 66.2416 95.4462 65.9244 95.4462 65.594L95.4831 57.5289C95.4831 57.1953 95.351 56.8753 95.1159 56.6394C94.8807 56.4035 94.5618 56.271 94.2293 56.271ZM33.8435 46.4115L94.5427 46.2081C95.2311 46.2081 95.563 45.8628 95.5384 45.1722L95.2987 38.9013C95.2838 38.5662 95.1934 38.2388 95.0343 37.9437C94.8751 37.6487 94.6514 37.3936 94.3799 37.1978C94.1084 37.002 93.7962 36.8704 93.4667 36.8131C93.1372 36.7557 92.799 36.774 92.4776 36.8666C90.1913 37.5325 87.8742 37.5695 85.5263 36.9776C84.7765 36.7926 84.4016 36.3116 84.4016 35.5347V31.1507C84.4016 28.5733 83.1171 27.3216 80.548 27.3956L44.1505 28.45C43.1917 28.4746 42.6755 28.9679 42.6017 29.9298L42.362 33.13C42.3297 33.5347 42.2172 33.929 42.0311 34.2896C41.845 34.6502 41.5891 34.9699 41.2783 35.23C40.9675 35.4901 40.6081 35.6854 40.2211 35.8045C39.8341 35.9235 39.4274 35.9638 39.0247 35.9232C37.0948 35.7259 35.2694 36.0465 33.5484 36.8851C33.3157 37.0019 33.1199 37.1814 32.9831 37.4036C32.8463 37.6258 32.7739 37.8818 32.774 38.1429V45.3202C32.774 45.6096 32.8867 45.8872 33.0873 46.0919C33.2878 46.2966 33.5598 46.4115 33.8435 46.4115Z" fill="#000001" fill-opacity="0.996"/>
<path d="M94.5427 46.2081L33.8435 46.4115C33.5598 46.4115 33.2878 46.2966 33.0873 46.0919C32.8867 45.8872 32.774 45.6096 32.774 45.3202V38.1429C32.7739 37.8818 32.8463 37.6258 32.9831 37.4036C33.1199 37.1814 33.3157 37.0019 33.5484 36.8851C35.2694 36.0465 37.0948 35.7259 39.0247 35.9232C39.4274 35.9638 39.8341 35.9235 40.2211 35.8045C40.6081 35.6854 40.9675 35.4901 41.2783 35.23C41.5891 34.9699 41.845 34.6502 42.0311 34.2896C42.2172 33.929 42.3297 33.5347 42.362 33.13L42.6017 29.9298C42.6755 28.9679 43.1917 28.4746 44.1505 28.45L80.548 27.3956C83.1171 27.3216 84.4016 28.5733 84.4016 31.1507V35.5347C84.4016 36.3116 84.7765 36.7926 85.5263 36.9776C87.8742 37.5695 90.1913 37.5325 92.4776 36.8666C92.799 36.774 93.1372 36.7557 93.4667 36.8131C93.7962 36.8704 94.1084 37.002 94.3799 37.1978C94.6514 37.3936 94.8751 37.6487 95.0343 37.9437C95.1934 38.2388 95.2838 38.5662 95.2987 38.9013L95.5384 45.1722C95.563 45.8628 95.2311 46.2081 94.5427 46.2081Z" fill="#642121"/>
</svg>
