<svg width="130" height="60" viewBox="0 0 130 60" fill="none" xmlns="http://www.w3.org/2000/svg">
<path d="M67.767 57.2313C67.637 57.2313 67.501 57.2375 67.6078 57.1636C67.6864 57.109 67.7646 57.055 67.8441 57.0006C68.0861 57.0006 68.1831 56.986 68.4181 57.0804L68.3422 57.2313H67.767Z" fill="#14120E"/>
<path d="M32.0581 3.58862V3.31122L32.2882 3.30509L32.3557 3.50394L32.0581 3.58862Z" fill="#14120E"/>
<path d="M0.397398 26.6948C0.190662 26.4557 0.181318 26.1143 0.235922 25.8185C0.311258 25.4985 0.381338 25.1834 0.41521 24.8567C0.423678 24.7767 0.47361 24.7046 0.492006 24.7828C0.560334 25.0672 0.659614 25.37 0.677134 25.6646C0.681222 25.7245 0.597418 25.9637 0.60355 26.0483C0.612018 26.1581 0.655818 26.5211 0.682682 26.6177C0.618734 26.637 0.556538 26.6572 0.492006 26.6723C0.46047 26.6793 0.428934 26.6872 0.397398 26.6948Z" fill="#14120E"/>
<path d="M15.9534 22.4033C15.7773 22.2635 15.6591 22.0687 15.5659 21.8666L15.8579 21.2625C15.9811 21.2324 16.0381 21.2502 16.1412 21.2923L16.2942 21.4461C16.3593 21.5653 16.3569 21.6952 16.3333 21.829C16.4092 21.932 16.4162 22.0666 16.4808 22.1674C16.3672 22.2602 16.2203 22.3624 16.0641 22.3765C16.0363 22.3788 15.9794 22.3957 15.9534 22.4033Z" fill="#14120E"/>
<path d="M16.9847 24.3131C16.8717 24.3031 16.7742 24.2585 16.6825 24.2001C16.6387 24.09 16.6212 23.9425 16.6396 23.8243C16.6448 23.7889 16.7771 23.5857 16.8209 23.5574C16.8317 23.555 16.9678 23.555 16.9847 23.555C17.1561 23.7203 17.2078 23.9746 17.1763 24.2077C17.1184 24.2777 17.0714 24.3145 16.9847 24.3131Z" fill="#14120E"/>
<path d="M56.1829 44.9573C55.9248 44.7451 55.9917 44.3409 55.9917 44.0367C56.2191 44.1132 56.2667 44.5354 56.3552 44.7661C56.3768 44.8221 56.3853 44.8829 56.3999 44.9413L56.2191 44.9877C56.2037 44.9903 56.1946 44.9673 56.1829 44.9573Z" fill="#14120E"/>
<path d="M22.3544 36.7497C22.3374 36.7368 22.312 36.7307 22.3035 36.7114C22.2268 36.5383 22.1938 36.3307 22.166 36.1455C22.2536 36.0632 22.3789 35.9756 22.5021 35.9586C22.6989 36.135 22.7243 36.3123 22.6811 36.5575C22.6566 36.6916 22.4767 36.7651 22.3544 36.7497Z" fill="#14120E"/>
<path d="M76.7026 58.9879C76.688 58.7981 76.6649 58.608 76.6363 58.4199C76.6235 58.3428 76.622 58.2561 76.6649 58.3198C76.8226 58.5537 76.9818 58.695 77.1695 58.9157C77.0232 58.9896 76.8612 59.0057 76.7026 58.9879Z" fill="#14120E"/>
<path d="M51.3509 57.0751C51.2525 57.0251 51.2069 56.9866 51.1663 56.8861C51.1993 56.687 51.2525 56.463 51.3123 56.2718V56.1191L51.1447 55.9266C51.1649 55.5824 51.187 55.5675 51.1716 55.1984C51.1654 55.0687 51.2986 54.9318 51.3885 54.8588C51.4385 54.4605 51.4624 54.0584 51.5377 53.6639C51.5631 53.5334 51.6537 53.3427 51.696 53.2034C51.7567 53.0052 51.6753 52.7123 51.5415 52.5584L51.3123 52.5532L51.1625 53.0154C51.1117 52.985 51.008 52.893 51.0057 52.82C50.9686 51.6958 50.994 50.5681 50.9289 49.4448C50.9251 49.375 50.7266 49.1905 50.6606 49.1689C50.4459 49.0982 50.1598 49.0681 49.937 49.102C49.9239 48.9081 49.9116 48.7715 50.0853 48.6494V48.4C50.2623 48.4576 50.3791 48.2686 50.4921 48.1565C50.5029 48.4208 50.5152 48.6807 50.6606 48.9081C50.768 49.0772 51.3 49.069 51.5044 49.0968C51.5669 49.1052 51.6137 49.161 51.6315 49.215C51.8905 50.0177 52.1352 50.8257 52.3863 51.6313L51.7807 52.2372C51.7605 52.467 51.7544 52.5123 51.9643 52.6413C52.1241 52.7392 52.2996 52.6691 52.4634 52.6285L52.4818 52.3096C52.4841 52.2702 52.5463 52.2664 52.5778 52.2448C53.003 53.0875 53.3137 53.993 53.6004 54.8912C53.6673 55.1023 53.6156 55.3715 53.6866 55.5815C53.7163 55.6729 53.9678 55.9535 54.0422 56.042C54.1684 56.1921 54.2221 56.3924 54.2846 56.5793C54.3076 56.6485 54.256 56.7892 54.2168 56.8485C53.448 56.9667 52.6625 56.9875 51.8873 57.0392C51.7083 57.0514 51.5299 57.0628 51.3509 57.0751Z" fill="#14120E"/>
<path d="M108.346 56.8184C108.472 56.8646 108.71 56.8692 108.844 56.8397C108.933 56.6032 108.905 56.4333 108.748 56.2341H108.385L108.09 56.6023C108.133 56.6677 108.27 56.7831 108.346 56.8184ZM112.489 57.2698C112.502 57.2812 112.516 57.2935 112.53 57.3058L112.76 57.153C112.637 57.045 112.529 56.9154 112.455 56.7676L112.2 56.9384C112.28 57.059 112.38 57.1744 112.489 57.2698ZM61.9373 55.0255C61.9829 55.0486 62.0287 55.072 62.0757 55.0956L62.0766 54.8909C62.0004 54.8241 61.8912 54.7478 61.7837 54.7765C61.7297 54.8165 61.6769 54.8571 61.6228 54.8979L61.7653 55.0688C61.8106 55.0457 61.8868 55.0378 61.9373 55.0255ZM57.2808 55.6729L57.6414 55.7637C57.6791 55.7418 57.7845 55.7313 57.7544 55.6998C57.6674 55.609 57.543 55.5237 57.4116 55.5438C57.3678 55.5868 57.3246 55.63 57.2808 55.6729ZM58.4847 55.5914C58.713 55.7214 59.0383 55.7418 59.2127 55.4997C59.196 55.2886 59.1037 55.0918 59.0077 54.9073C59.1782 54.7627 59.2489 54.624 59.2851 54.405L59.0091 54.323C58.9697 54.3428 58.3694 54.8413 58.3317 54.8909C58.2248 55.0325 58.1889 55.1672 58.2111 55.3517C58.2832 55.4562 58.3772 55.5237 58.4847 55.5914ZM61.5507 53.8207L61.8605 53.4718H62.0512C62.0894 53.2505 62.0126 53.0688 61.7837 53.0253C61.6552 53.0861 61.4979 53.0796 61.3793 53.1591C61.3478 53.2002 61.2762 53.3865 61.2815 53.4341C61.2964 53.6017 61.3863 53.7615 61.5507 53.8207ZM63.9139 52.6233L64.2421 52.5199L64.0847 52.2834C64.0593 52.2746 64.0339 52.2664 64.0085 52.258C63.9434 52.2793 63.8832 52.3056 63.821 52.3342C63.8301 52.4361 63.8633 52.5348 63.9139 52.6233ZM61.8605 54.2392C61.8944 54.2561 61.9291 54.2736 61.9627 54.2906L62.102 54.1507C62.0751 54.0751 62.0074 53.9402 61.9373 53.8937C61.9113 53.8879 61.8859 53.8815 61.8605 53.8748C61.8342 53.8879 61.805 53.8946 61.7837 53.9139C61.7668 53.9291 61.7452 53.9708 61.7452 53.9708V54.1244C61.7531 54.1513 61.7636 54.1808 61.7837 54.2006C61.8036 54.2208 61.8342 54.2269 61.8605 54.2392ZM56.8396 53.1623L57.4093 53.1635L57.3769 52.8636C57.1593 52.7622 56.9827 52.8005 56.7634 52.8761C56.7803 52.9737 56.8066 53.0688 56.8396 53.1623ZM61.8582 52.5923C61.8845 52.5978 61.9104 52.6037 61.9373 52.6092C61.975 52.5903 62.0135 52.5707 62.0521 52.5517V52.3219H61.7122C61.7522 52.418 61.7983 52.5062 61.8582 52.5923ZM2.99478 52.4002L3.27598 52.4708C3.32008 52.4034 3.37526 52.2901 3.36534 52.2063C3.34168 52.0051 3.31015 51.676 3.26313 51.4938C3.19539 51.5192 3.00559 51.5861 2.97931 51.6699C2.90339 51.9081 2.87477 52.1709 2.99478 52.4002ZM116.601 51.6999C116.903 51.7189 117.004 51.6883 117.268 51.5607C117.287 51.5268 117.357 51.2348 117.352 51.2094C117.29 50.8879 117.198 50.6873 116.862 50.5673C116.735 50.5226 116.293 50.5319 116.286 50.7489C116.28 50.9139 116.286 51.0794 116.286 51.2453L116.744 51.5566L116.601 51.6999ZM59.0991 52.557C59.1843 52.6431 59.2804 52.6714 59.406 52.6387C59.4997 52.5386 59.5619 52.4156 59.6095 52.2834C59.6778 52.1026 59.7394 51.8772 59.568 51.7376C59.5388 51.7137 59.5111 51.6883 59.4828 51.6637C59.3943 51.636 59.326 51.6296 59.2319 51.6383C59.0345 51.7919 58.8591 51.9919 58.7323 52.2095C58.7969 52.2994 59.0068 52.4469 59.0991 52.557ZM3.88567 53.741C3.89648 53.7764 3.90729 53.8117 3.91897 53.8476L4.1365 53.7025V53.1626L4.02116 53.1497C3.94728 53.1521 3.89969 53.1737 3.83282 53.2067C3.78581 53.4373 3.81881 53.5212 3.88567 53.741ZM62.6279 53.8549C62.6793 53.8584 62.7316 53.8616 62.7838 53.8654C62.6708 53.6196 62.5803 53.3544 62.5248 53.0905L62.2833 53.0951C62.1581 53.2674 62.2057 53.5203 62.2057 53.7212C62.3394 53.7924 62.4731 53.8432 62.6279 53.8549ZM57.6391 51.1478L57.9857 51.3168C58.1866 51.1533 58.2619 50.9901 58.1895 50.7317C58.1034 50.7118 58.0175 50.7848 57.9287 50.7825C57.802 50.8756 57.7013 51.0024 57.6391 51.1478ZM58.5615 53.4949C58.8024 53.4949 58.9493 53.4333 59.1391 53.3027C59.0722 53.1649 58.9493 53.0884 58.8237 53.0154L58.2102 53.2467C58.2993 53.3489 58.4102 53.4963 58.5615 53.4949ZM58.7154 49.2086C58.7323 49.2568 58.7484 49.3044 58.7662 49.352C58.8217 49.302 58.9361 49.1429 58.9069 49.0614C58.8669 48.9484 58.8298 48.8877 58.7446 48.7922L58.6056 48.8851C58.6409 48.9937 58.6768 49.1011 58.7154 49.2086ZM119.935 48.5945L120.423 48.7908C120.436 48.6947 120.438 48.6138 120.403 48.5247C120.364 48.4249 120.252 48.3303 120.157 48.2984L119.935 48.5945ZM3.94408 48.8313C3.96335 48.8497 3.98262 48.869 4.00189 48.8883L4.11723 48.7744L4.02116 48.6777C4.0051 48.6614 3.98875 48.6453 3.97269 48.6299L3.85823 48.7455C3.88655 48.7738 3.91575 48.8021 3.94408 48.8313ZM81.4216 49.394C81.5001 49.3704 81.5609 49.3333 81.6324 49.2921C81.6838 49.1896 81.7346 49.088 81.7854 48.9861C81.5393 48.9458 81.5407 48.9359 81.3071 49.0273L81.2216 49.3251C81.1772 49.477 81.2695 49.4393 81.4216 49.394ZM57.2577 52.4878C57.2916 52.5 57.4145 52.54 57.4408 52.5438C57.7205 52.2533 57.7267 51.8141 57.5205 51.4836L57.4116 51.5309C57.3117 51.5531 57.2355 51.5537 57.1433 51.4976C57.0732 51.8118 57.0387 52.1409 57.2087 52.4361C57.2201 52.4568 57.2417 52.4708 57.2577 52.4878ZM78.1229 48.1086C78.2119 48.0859 78.3007 48.0564 78.3863 48.0251C78.4689 47.9194 78.3042 47.8152 78.2344 47.7944C78.1229 47.9258 78.03 47.9933 77.8522 48.0286L78.0458 48.1162C78.0712 48.1139 78.0975 48.1113 78.1229 48.1086ZM57.0279 49.7433C57.0486 49.7476 57.0703 49.7532 57.0916 49.7584L57.1532 49.6746C57.1687 49.6232 57.1862 49.5727 57.2055 49.5219C57.1815 49.404 57.0901 49.3274 57.0577 49.215C56.9634 49.1651 56.8419 49.1035 56.721 49.1076C56.6436 49.112 56.568 49.2042 56.5283 49.2518L56.6819 49.6355C56.7949 49.677 56.9102 49.7146 57.0279 49.7433ZM77.5094 48.867C77.5368 48.8646 77.7231 48.8483 77.7392 48.8398C77.7517 48.8346 77.8478 48.8153 77.8437 48.8129L77.9322 48.4903L77.766 48.2555H77.5433C77.517 48.0097 77.4425 47.882 77.1788 47.8596C77.0358 48.0473 77.0871 48.3163 77.0871 48.5379C77.2282 48.6523 77.3654 48.7583 77.5094 48.867ZM1.88781 47.1398C1.99994 47.1839 2.15148 47.2414 2.27821 47.2268L2.09922 46.9701L1.88781 47.1398ZM59.0223 54.0862H59.175C59.229 54.0628 59.2822 54.0397 59.335 54.0176L59.0991 53.8555H58.9837L58.9192 54.0476C58.9537 54.0602 58.9875 54.073 59.0223 54.0862ZM2.8555 47.3275L3.14838 47.1839C3.13086 46.9847 3.10925 46.8878 2.98019 46.7251L2.75651 46.8063C2.77578 46.9441 2.7971 47.0817 2.81549 47.2201C2.81929 47.2586 2.83652 47.2945 2.8555 47.3275ZM116.708 53.8172C116.747 53.833 116.786 53.8494 116.825 53.8654L116.679 53.2805C116.554 53.1535 116.473 53.1474 116.287 53.1681L116.057 52.7062L115.828 52.9421L115.902 53.242H116.133V53.5471C116.32 53.6493 116.511 53.7378 116.708 53.8172ZM58.8284 44.3561C58.9592 44.437 59.173 44.5077 59.3289 44.47C59.439 44.4432 59.6109 44.3194 59.6825 44.2288C59.8764 43.9818 59.8638 43.6813 59.6364 43.4606C59.5634 43.389 59.3534 43.2737 59.2521 43.2851C59.1335 43.2982 58.8453 43.4244 58.8053 43.5383C58.7437 43.7111 58.7078 43.8548 58.6914 44.0417C58.7709 44.0466 58.843 44.0942 58.8953 44.1517C58.8707 44.2195 58.8482 44.2878 58.8284 44.3561ZM124.226 47.8342C124.251 47.8342 124.302 47.8596 124.302 47.8342V47.7191H124.072V47.8342H124.226ZM58.6386 42.7002C58.6748 42.7148 58.7116 42.7294 58.7484 42.744C58.7677 42.4964 58.7691 42.3159 58.5925 42.1206C58.4024 42.1691 58.268 42.188 58.141 42.3612C58.1372 42.443 58.158 42.5656 58.2549 42.5925C58.3688 42.6243 58.5294 42.6573 58.6386 42.7002ZM58.8684 41.5824C58.8976 41.597 58.9259 41.6116 58.9545 41.6271L59.1475 41.4986L58.9829 41.3234L58.7446 41.5179C58.7793 41.5486 58.8269 41.5608 58.8684 41.5824ZM58.9569 41.1456L59.2503 41.0659C59.3473 40.9897 59.2965 40.8267 59.5196 40.6936L59.5204 40.316C59.5312 40.1493 59.5733 40.1248 59.406 40.1248H59.0605V40.5137C58.8538 40.6799 58.7814 40.9251 58.9569 41.1456ZM82.1119 47.6995C82.1221 47.7051 82.1329 47.7115 82.1446 47.7165L82.3829 47.5728L82.3157 47.3737C82.3788 47.3331 82.4564 47.3223 82.5289 47.3424C82.5595 47.2446 82.5394 47.15 82.5026 47.0592C82.4252 47.0192 82.349 46.9926 82.2652 46.9649C82.2266 46.9771 82.1881 46.9903 82.1498 47.0034L82.1382 47.1439C82.182 47.2361 82.0398 47.5591 81.9869 47.6376C82.0243 47.6651 82.0698 47.6788 82.1119 47.6995ZM16.0297 43.8063H16.3719C16.4586 43.7535 16.5118 43.6691 16.5579 43.5759C16.5302 43.3706 16.4402 43.3231 16.2519 43.2746L16.0264 43.4337C16.0189 43.5584 16.0197 43.6828 16.0297 43.8063ZM11.2733 41.1319C11.4193 41.1935 11.6882 41.301 11.8459 41.2566C12.2395 41.1433 12.2909 40.8291 12.3388 40.4398C12.2272 40.4238 11.7828 40.5193 11.692 40.5739C11.4829 40.7044 11.3431 40.8959 11.2733 41.1319ZM60.2823 38.063L60.4405 38.2767C60.5959 38.2373 60.6221 38.1336 60.6627 37.9943C60.5197 37.8968 60.376 37.9059 60.2823 38.063ZM60.5737 37.6448C60.8096 37.7368 60.9871 37.773 61.24 37.7391C61.2225 37.6031 61.141 37.4617 61.0488 37.3642L60.7465 37.3695L60.5737 37.6448ZM4.69597 47.5276C4.69072 47.5638 4.68604 47.6006 4.68079 47.6376L4.9798 47.4876V47.3369L4.76372 47.2677C4.73452 47.3614 4.70999 47.4283 4.69597 47.5276ZM74.2107 36.3472C74.3196 36.3615 74.3964 36.2955 74.4816 36.2239L74.4028 35.9065L74.168 35.8972L74.0188 36.2169C74.0705 36.2645 74.1397 36.3317 74.2107 36.3472ZM54.8029 30.4625C55.0128 30.4788 55.2199 30.4648 55.3866 30.322C55.3419 30.0797 55.2604 29.8099 55.1182 29.6201C54.8899 29.6583 54.5824 29.6639 54.4455 29.8838C54.3833 29.983 54.3357 30.1644 54.4195 30.2674C54.5141 30.3842 54.6548 30.4479 54.8029 30.4625ZM120.927 17.4568C120.937 17.4948 120.947 17.533 120.957 17.5716C121.354 17.4238 121.374 17.2285 121.347 16.8188L121.121 16.8051L120.892 16.9625C120.875 17.1304 120.884 17.2962 120.927 17.4568ZM64.0085 42.8287C64.0593 42.8926 64.1107 42.9563 64.1615 43.0208C64.1986 42.9969 64.2838 42.9931 64.273 42.951L64.2047 42.6763L64.3338 42.7087C64.3238 42.3659 64.1416 42.3297 63.8341 42.261C63.9057 42.4765 63.8949 42.6663 63.8817 42.8926C63.9223 42.8716 63.9685 42.8486 64.0085 42.8287ZM39.4472 16.7105L39.6907 16.7919C39.7669 16.7473 39.7815 16.6941 39.806 16.6129C39.7853 16.5575 39.7646 16.502 39.7439 16.4468L39.4472 16.7105ZM29.8264 5.64366C29.9549 5.73068 30.0471 5.78207 30.2063 5.82821C30.2901 5.68893 30.3914 5.56278 30.3701 5.38933C30.3368 5.36159 30.0623 5.2407 30.0255 5.23691C29.9318 5.22698 29.8424 5.25005 29.7589 5.30932C29.7817 5.41999 29.8042 5.53212 29.8264 5.64366ZM100.216 5.95026C100.267 5.92282 100.325 5.86033 100.333 5.79755C100.359 5.57767 100.357 5.31224 100.262 5.10609C100.159 4.88417 99.9797 4.70401 99.7075 4.76942C99.6599 5.07164 99.6412 5.42671 99.7385 5.72046C99.8068 5.92574 99.9948 6.05276 100.216 5.95026ZM85.8705 4.45435C85.9415 4.49902 86.2603 4.54107 86.3564 4.5218L86.4072 4.33989C86.4565 4.38807 86.5056 4.43741 86.555 4.48647C86.7164 4.38368 86.8656 4.22513 86.9062 4.03299C86.9284 3.92699 86.8823 3.8099 86.7912 3.75179C86.7074 3.69777 86.4279 3.64405 86.3307 3.67704C85.966 3.80231 85.9231 3.88319 85.7464 4.24995C85.7668 4.3574 85.7777 4.39274 85.8705 4.45435ZM54.7261 3.72552C54.7591 3.75092 54.807 3.74625 54.847 3.75617L54.9182 3.6493V3.49571C54.88 3.36577 54.7016 3.25715 54.5731 3.24051C54.4925 3.22883 54.4131 3.27496 54.3885 3.35818C54.4954 3.49104 54.5953 3.6093 54.7261 3.72552ZM97.6071 2.67753C97.6486 2.66147 97.691 2.64541 97.733 2.62905L97.7756 2.54467C97.7193 2.51693 97.6696 2.46846 97.6071 2.45999C97.5409 2.45181 97.4293 2.4778 97.4349 2.57532C97.4419 2.72541 97.4664 2.73213 97.6071 2.67753ZM12.6892 22.318C12.7023 22.321 12.7155 22.3242 12.7286 22.3271C12.9061 22.1896 12.8945 21.9989 12.8784 21.793C12.7893 21.7285 12.6901 21.7299 12.5893 21.7478L12.5026 22.005L12.3563 22.0596C12.377 22.1212 12.401 22.1904 12.4208 22.2512C12.5102 22.2734 12.5993 22.2964 12.6892 22.318ZM85.1966 7.16966C85.3093 7.23331 85.4509 7.27419 85.5642 7.19126C85.7949 6.99446 85.9108 6.88145 85.7362 6.57543C85.5671 6.6169 85.1811 6.6899 85.1034 6.87065C85.0596 6.97285 85.0926 7.10571 85.1966 7.16966ZM28.7985 10.4462C28.814 10.4509 28.8295 10.4555 28.8455 10.4602L28.9031 10.3995C28.9063 10.3341 28.9086 10.2695 28.9077 10.2032L28.687 10.2126C28.687 10.2841 28.7109 10.4202 28.7985 10.4462ZM58.358 37.9H58.6768V37.5663C58.4824 37.5692 58.4094 37.7359 58.358 37.9ZM124.685 14.5032H124.916L124.915 14.3978C124.842 14.3155 124.802 14.2726 124.685 14.2734C124.647 14.3117 124.609 14.3502 124.571 14.3888C124.485 14.4755 124.564 14.5032 124.685 14.5032ZM118.994 24.7752C119.12 24.739 119.279 24.6952 119.347 24.572C119.354 24.5305 119.362 24.3968 119.355 24.3606C119.334 24.2601 119.315 24.1892 119.274 24.0908L118.983 24.0186C118.913 24.2417 118.827 24.5737 118.994 24.7752ZM111.165 57.9978C111.098 57.9271 111.04 57.8533 110.993 57.768H110.685C110.561 57.5034 110.413 57.196 110.243 56.9621C110.188 56.8867 110.048 56.8021 109.958 56.7898C109.841 56.7746 109.737 56.8184 109.656 56.8946C109.515 57.0252 109.557 57.2596 109.603 57.4226C109.625 57.5052 109.557 57.575 109.497 57.615C109.191 57.615 108.883 57.6217 108.577 57.615C108.549 57.6141 108.525 57.5995 108.5 57.5887C108.364 57.5303 108.086 57.3151 107.989 57.1928C107.828 56.9922 107.793 56.0627 107.771 55.7736L107.396 55.6983L107.311 57.5379H105.394L105.317 56.7723C105.506 56.7863 105.647 56.7775 105.815 56.7115C105.9 56.678 105.986 56.5109 105.994 56.4254C105.996 56.4 106.002 56.3725 105.992 56.3489C105.578 55.22 105.147 54.0961 104.717 52.9737C104.705 52.9445 104.687 52.9176 104.664 52.8966C104.53 52.776 104.404 52.6314 104.315 52.4746C103.702 52.6536 102.259 52.5517 101.556 52.5517C101.582 52.1505 101.354 51.8921 101.241 51.516C100.609 49.4349 100.054 47.327 99.4967 45.2257C99.473 45.1367 99.4447 44.5576 99.4868 44.4586C100.532 42.0105 101.711 39.6152 102.768 37.1712C102.901 36.8652 102.802 36.4409 103.092 36.221L103.169 34.9847C103.678 34.4451 104.326 33.9913 104.675 33.3355C104.893 32.9235 105.105 32.1885 105.324 31.648C105.389 31.4874 105.406 31.0669 105.488 30.8809C106.193 29.2825 106.98 27.7189 107.695 26.1251C109.483 22.1411 111.248 18.1471 113.022 14.1581C113.15 13.8713 113.264 13.5776 113.369 13.2815L113.14 13.0464C110.162 13.0155 107.182 12.9863 104.204 12.9696C104.116 12.9688 104.028 12.958 103.94 12.9524C104.107 12.9203 104.187 12.8803 104.268 12.7387C101.868 12.7396 99.4038 12.868 97.0322 12.8149L96.9537 6.37863C97.0036 6.3871 96.8558 6.43089 96.8383 6.47849C94.8477 11.9287 92.9051 17.3946 90.9717 22.8647H90.7443C90.5702 23.2422 90.3813 23.6081 90.2806 24.0125L90.4365 24.1769C90.306 24.5875 90.1766 24.9904 90.0452 25.401L89.5912 25.7038L89.2872 26.9185C89.3418 26.9407 89.4411 27.0245 89.4665 27.0791C89.4443 27.113 89.4215 27.146 89.3993 27.1798L89.2843 27.2376C88.879 28.427 88.4722 29.6145 88.0696 30.8047C88.0427 30.8853 88.0517 30.9931 88.0602 31.0769L88.363 31.38H87.9802L87.3638 33.0703C87.6689 33.3241 87.7046 33.5939 87.6683 33.9753C87.4929 34.149 87.2899 34.1721 87.0601 34.2182C86.6548 35.253 86.2513 36.2891 85.8469 37.3248C85.7876 39.4961 85.9607 41.6817 85.7555 43.8449C85.721 44.2072 84.9697 46.0308 84.7805 46.3765C84.7291 46.4711 84.7422 46.6889 84.7644 46.7926L84.989 46.7973L85.8384 45.1825L85.7555 46.8793C86.093 47.0592 86.1628 47.1807 86.2206 47.5427L85.7555 48.0243V51.1764C85.61 51.2494 85.481 51.3577 85.3741 51.4792C85.3411 51.9887 85.3011 52.4962 85.2573 53.0066C85.2494 53.0852 85.1852 53.0137 85.1802 52.9351C85.1542 52.5108 85.1647 52.3386 84.9866 51.9379C84.812 51.8789 84.7174 51.8319 84.6269 51.6637C84.7051 51.6065 84.81 51.5069 84.8243 51.4021L85.3648 51.3253L85.37 51.0926L84.8506 50.9466C84.6829 50.6788 84.5191 50.4099 84.6861 50.0992L83.4545 49.4063C83.4545 49.161 83.503 48.9029 83.6072 48.6777V48.5247L83.4545 48.3425V48.0432C83.3943 47.9942 83.053 47.8552 82.9555 47.7959C82.8448 47.7959 82.5026 47.7725 82.4188 47.7959C82.391 47.8026 82.3665 47.8199 82.342 47.8342C82.3113 47.8528 82.1881 47.988 82.1504 48.0257H81.5693C81.8684 48.5554 82.1104 49.0106 81.6123 49.4834H81.2371C80.9573 49.9637 80.976 50.1573 80.9153 50.7036C80.9074 50.7693 80.8475 50.5842 80.8335 50.5191C80.7991 50.3597 80.7874 50.1097 80.7684 49.9462C80.5453 50.3673 80.258 50.7603 80.0994 51.2094C80.0539 51.3385 80.1064 51.8874 80.0784 52.0536C80.0685 52.1134 79.9388 52.2848 79.921 52.3602C79.8763 52.5561 79.8486 52.8104 79.8536 53.0113L80.0784 53.1643C80.0784 53.4079 80.0702 53.6508 80.0784 53.8937C80.081 53.9554 80.1546 54.0085 80.194 54.0476C80.2448 54.0984 80.2586 54.1761 80.194 54.1437L79.9257 54.0094C79.6573 54.2523 79.3866 54.4921 79.1224 54.7397C79.0663 54.7919 79.0208 54.9365 79.0076 55.0124L79.163 55.2431C79.1069 55.2822 79.0132 55.3494 79.0056 55.4282C78.9992 55.4808 78.9939 55.851 79.0056 55.8887C79.0231 55.9494 79.262 56.2055 79.3169 56.2341H78.6178C78.5763 56.042 78.5471 55.9012 78.3828 55.7736C78.1681 55.7736 77.9538 55.766 77.7392 55.7736C77.7109 55.7751 77.6884 55.799 77.6624 55.8122C77.613 55.9191 77.58 56.0288 77.5 56.1127C77.3824 56.2341 77.2419 56.235 77.0871 56.2327L77.0106 55.8507C77.9243 53.8937 78.8669 51.9505 79.7543 49.9824C79.8226 49.83 79.8419 49.5739 79.8442 49.408C79.7397 49.342 79.636 49.2772 79.5291 49.215C79.4561 49.1718 79.502 49.0836 79.5802 49.1152L79.9134 49.248C80.0495 49.1222 80.2416 48.8524 80.3137 48.6777C80.3245 48.6515 80.3815 48.1387 80.3777 48.1081C79.8927 48.0158 79.4211 47.9404 78.9326 47.8718L78.6987 48.2555H78.1614V48.9458H78.6978L78.7749 48.716L79 48.7259C78.9968 48.8337 78.9802 49.0343 78.9346 49.1379C78.2146 50.7664 77.3964 52.3555 76.6454 53.9708C76.6106 54.0453 76.5607 54.4036 76.556 54.476C76.5116 54.4097 76.4623 54.3458 76.4223 54.2777C75.3319 52.4279 74.2565 50.5705 73.1758 48.716C74.1598 48.716 75.1439 48.7268 76.1285 48.716C76.2453 48.7137 76.2532 48.6716 76.3201 48.6007C76.37 48.1857 76.3055 47.8774 75.8978 47.7959C75.6248 47.7404 74.6054 47.7936 74.3266 47.8727L73.9423 47.5658L72.2546 47.4884C72.2546 44.0495 72.2668 40.6092 72.2402 37.1712C71.559 35.3558 70.754 33.5816 70.1974 31.7248C70.1066 31.4211 70.1206 30.3074 70.1066 29.9214C69.8721 29.7722 69.6484 29.6385 69.4762 29.4241C69.4607 29.404 69.181 28.759 69.1719 28.7336C68.3715 26.5027 67.5119 24.2922 66.7179 22.0596C65.2203 17.849 63.7895 13.6138 62.2956 9.40229C62.2395 9.24402 62.0874 9.0478 61.9811 8.92341C61.9537 8.96721 61.8912 9.09627 61.9061 9.17248C63.2627 16.2 64.6468 23.2323 65.9567 30.2674C66.5795 33.6132 66.7839 37.1896 67.4167 40.5467C67.5095 41.0419 68.274 42.3419 68.4261 42.9248C68.7167 44.0341 68.9625 45.3779 69.1065 46.5298C69.1272 46.6989 69.0481 47.2116 69.0297 47.4122L67.7285 47.3351C67.7285 46.232 67.7078 45.1472 67.808 44.0542C67.7548 43.9398 67.685 43.839 67.5788 43.7719C67.5496 43.7964 67.5206 43.8203 67.4912 43.8449C67.4126 44.228 67.3075 44.6079 67.2657 44.9959C67.186 45.7323 67.1775 46.4822 67.1177 47.2201C67.0981 47.4513 66.8277 47.555 66.6549 47.6429C66.6338 47.9621 66.6125 48.2818 66.59 48.6007C66.5833 48.7078 66.5719 48.8369 66.5392 48.7344C66.5033 48.6185 66.3924 48.5522 66.2834 48.5247L66.3448 48.3411C66.268 48.2409 66.1395 48.1025 66.0236 48.0432L65.8235 48.0605C65.8022 48.1127 65.7806 48.1647 65.759 48.2178C65.853 48.3855 65.9967 48.5846 66.1964 48.6331C66.2411 48.7908 66.251 48.8778 66.3856 48.9843C66.4078 49.0019 66.4364 49.0121 66.4633 49.0229H66.6163C66.6432 49.013 66.6671 48.9975 66.6934 48.9843L66.7921 48.8851C66.9997 49.1963 67.0777 49.2095 67.0383 49.5984C67.0292 49.6863 66.9685 49.8125 66.9585 49.9053C66.8415 51.0155 66.7547 52.1301 66.6557 53.2429C66.3611 52.9976 66.0706 52.7476 65.7727 52.507C65.7505 52.4895 65.7222 52.4831 65.6962 52.4746H65.5423C65.5423 52.4746 65.4971 52.493 65.4854 52.5132C65.4346 52.5984 65.3961 52.6916 65.3517 52.7801C65.1709 52.7847 64.8818 52.651 64.7452 52.5394L64.5828 52.7815C64.2377 52.7868 63.8925 52.7792 63.548 52.7868C63.4364 52.7891 63.1205 53.3588 63.0492 53.4741C63.103 53.6318 63.1345 53.708 63.2758 53.791L63.1243 54.2447C63.2507 54.4182 63.2028 55.072 63.2028 55.3132L62.3601 55.703L62.4495 56.0896L62.5771 55.9091C62.6063 55.9535 62.6361 55.9979 62.6656 56.042V56.4639H62.1297L61.8991 56.7708H60.5182V55.8458C60.689 55.6983 60.8925 55.324 61.0549 55.2387L60.748 55.1601C60.748 54.7633 60.7325 54.3668 60.748 53.9708C60.7559 53.7664 60.9804 53.7007 61.1317 53.6254L61.2041 53.3349L60.9778 53.3217V53.1658L61.2079 53.089L61.2832 52.7882C61.0864 52.6124 60.9174 52.6285 60.6712 52.6285L60.3599 52.3172C60.2536 52.799 60.2116 53.2329 60.0539 53.7016C60.1491 53.734 60.2767 53.8324 60.2884 53.9413C60.2314 53.9816 60.1383 54.0462 60.1322 54.1244C60.0676 54.9794 60.0308 55.8376 59.9809 56.6937L58.3641 56.7714C58.1781 56.5331 57.9521 56.4464 57.6776 56.6131L57.609 56.4762C57.2186 56.4117 57.0948 56.6263 56.7596 56.7685L56.6828 55.2346C56.8571 55.3485 57.0486 55.3061 57.2431 55.2869C57.1348 55.1032 57.0948 54.9917 56.8743 54.9426C56.8259 54.9318 56.7196 54.8165 56.6834 54.775C56.648 54.735 56.7596 54.6988 56.7972 54.6611C56.9932 54.6235 57.2738 54.502 57.4046 54.3498C57.51 54.2275 57.5176 54.0044 57.5129 53.8508C57.5115 53.7942 57.4455 53.76 57.4116 53.7156C57.164 53.8362 56.9281 53.9562 56.6828 54.087C56.4813 53.0513 56.2492 52.0203 56.0763 50.9793C56.0483 50.8143 56.083 50.5428 56.0594 50.3649C56.0161 50.0522 55.8415 49.7508 55.777 49.4448C55.6841 49.0051 55.8792 48.9113 55.4987 48.5224C55.5481 48.4979 55.5971 48.4725 55.647 48.4477L55.9169 48.6375L55.8386 48.7931C55.8809 48.8153 56.0331 48.89 56.107 48.8506C56.2652 48.7668 56.4492 48.7814 56.606 48.7061C56.6104 48.1548 56.6325 47.5813 56.3683 47.0668C56.2138 46.6948 56.3259 46.4822 56.1607 46.0699C56.1484 46.0392 56.2054 46.0205 56.2223 45.9931C56.3768 45.7446 56.4644 45.5157 56.6104 45.2611C56.8694 45.1866 57.1433 45.0987 57.3731 44.9545C57.4723 44.6099 57.6122 44.2747 57.6691 43.9219C57.7445 43.4492 57.7281 42.9423 57.7614 42.4643C57.7889 42.0561 57.9343 41.6414 57.9833 41.2373C58.0026 41.0799 57.9042 40.5885 57.9136 40.3931C57.9451 39.7326 58.1334 39.0733 58.1372 38.3988C58.1419 37.5079 58.4208 36.6599 58.1994 35.7903C58.035 35.1459 57.2954 33.69 56.9295 33.0289C56.848 32.8811 56.5797 32.6829 56.4804 32.4922C56.2366 32.0209 56.2416 31.6942 55.7624 31.3843C55.7049 31.0944 55.7434 31.0039 55.4935 30.8047C55.3872 30.72 55.1912 30.7046 55.0622 30.7031L54.687 31.0745L53.6159 30.8409L53.307 31.0731C53.1233 31.0731 52.6529 31.1093 52.5019 31.0731C52.4736 31.0664 52.4473 31.0523 52.4251 31.0345C52.2721 30.9122 52.2359 30.6757 52.169 30.4978C52.1422 30.4272 52.0508 30.4111 51.99 30.4009L52.1498 30.162C52.1375 30.0791 52.1144 30.0122 52.0414 29.9892C51.8186 29.9191 51.5979 29.8659 51.385 29.7655C51.3342 29.5071 51.1435 29.3479 50.919 29.2332C51.1719 29.0381 51.2136 28.8334 51.0951 28.5797C50.9505 28.2693 50.6521 27.9872 50.4194 27.7358C50.1043 27.3968 49.7822 27.0385 49.4 26.7763C49.087 26.7877 48.8125 26.7033 48.5126 26.6242C48.4466 26.6055 48.2705 26.6215 48.206 26.6478C48.1608 26.6656 47.7041 26.9462 47.6693 26.983C47.3694 27.2998 47.062 27.4581 46.753 27.7411C46.5755 27.9025 46.4061 28.1639 46.3264 28.3931C46.6216 28.7266 46.527 29.2419 46.5571 29.6539C46.56 29.7039 46.7069 29.9643 46.7101 30.0373C46.7238 30.3302 46.6975 30.6257 46.7116 30.9195C46.2017 31.2205 45.6936 31.6927 45.5514 32.2615C44.7972 35.2878 44.243 38.4858 43.5731 41.5439C43.5255 41.7603 43.3071 41.8555 43.5264 42.0806C43.6009 42.1568 43.6508 42.1959 43.7571 42.1959L43.8368 42.1551C43.8432 42.1606 44.0652 42.4941 44.106 42.5411C44.2436 43.8335 44.4696 45.3259 44.4856 46.6063C44.4856 46.6241 44.5656 46.8087 44.5619 46.837C44.4921 47.4055 44.4258 47.9679 44.4106 48.5592C44.6527 48.5653 44.7864 48.624 44.9441 48.3986L45.0854 48.5046C44.9379 48.6062 44.7981 48.6877 44.695 48.8313C44.5198 49.0737 44.3934 49.3742 44.259 49.6393L45.6358 50.6341V53.6254L45.8665 53.7025V54.0094H45.7126V54.6988L46.398 54.9388C46.4578 54.9604 46.3562 55.0609 46.3363 55.1216C46.1325 55.2331 45.9164 55.4478 45.8157 55.6583C45.6834 55.9366 45.7082 56.1997 45.7158 56.5001L45.5552 56.5033C45.5707 56.5232 45.5582 56.4508 45.5599 56.4254C45.6151 55.4997 45.4475 54.3653 45.406 53.4035C45.147 53.0697 44.7826 53.1243 44.4074 53.2256L44.4027 52.9351L43.412 53.0122L43.2563 53.242C42.6554 53.2213 42.034 53.3019 41.4553 53.1483C40.9303 53.009 39.9675 52.4869 39.4232 52.2457C39.3856 51.9487 39.3932 51.6445 39.1905 51.4077C38.8784 51.4474 38.8681 51.6798 38.8912 51.9435C38.7721 51.8749 38.6731 51.8019 38.5405 51.7843C38.3478 51.7589 38.0777 51.7583 37.8864 51.7913L37.8111 52.015C37.0315 52.3672 36.2597 52.7374 35.4725 53.0712C35.3647 53.1164 35.1635 53.1018 35.0502 53.0829V52.8677C34.9551 52.8177 34.8073 52.7876 34.7051 52.7976C34.6683 52.8005 34.3924 52.9228 34.36 52.9515V53.4718H33.2092L32.5186 54.163V54.5458L32.6725 54.6226V54.8457C32.0812 54.8909 31.7985 54.6468 31.2916 54.3928L31.2087 54.146C31.5407 54.1831 31.7962 54.1638 32.0205 53.8937C32.0383 53.8724 32.0514 53.8447 32.059 53.8172C32.1089 53.6225 32.1005 53.0875 31.8669 53.0277C31.6692 52.9769 31.4186 53.0075 31.2148 53.0131L30.9082 48.3332C30.8475 48.3125 30.778 48.2894 30.7161 48.2687C30.5607 48.2178 30.5289 48.2079 30.5237 48.3709C30.4737 49.879 30.5015 51.3922 30.3715 52.8966C30.3423 53.2379 30.1978 53.3349 30.2223 53.7764C30.2255 53.8295 30.14 53.7086 30.0985 53.6756C30.0401 53.5258 30.0033 53.3588 29.824 53.3235C29.4351 53.435 29.0485 53.5734 28.6446 53.6172C28.1818 53.6672 27.6916 53.6277 27.2264 53.6254L26.8418 52.9351H25.9772C25.8695 52.4072 25.7541 51.8789 25.6011 51.363C25.5267 51.1124 25.402 50.7512 25.1935 50.595C24.8916 50.369 24.4866 50.0875 24.1189 49.9439C24.0182 49.9039 23.4047 50.0107 23.2756 50.0154C23.108 50.0224 22.8604 49.9815 22.6995 49.9383C22.5474 48.4701 22.4598 46.9932 22.2431 45.5326C22.1914 45.254 21.9964 45.0082 21.8562 44.7661C21.8562 44.4332 21.8472 44.1009 21.8562 43.7684C21.858 43.7135 21.9631 43.6127 22.0092 43.5861V42.5028L22.4721 42.6573C22.6376 42.5656 22.7927 42.4897 22.9687 42.4257C23.0911 42.3814 23.1778 42.5449 23.2756 42.5872C23.4622 42.6401 23.6561 42.6588 23.8497 42.6555L24.0027 42.4266C24.2173 42.3668 24.4387 42.3291 24.6562 42.2806C24.7418 42.261 24.917 42.0899 24.9246 42.0038C24.9584 41.6149 24.877 41.2335 24.9914 40.8536C24.9999 40.8244 25.0215 40.7999 25.0446 40.7806C25.1552 40.6869 25.2715 40.599 25.385 40.5085C25.385 40.2273 25.4627 39.7504 25.0215 39.7504C24.8154 39.9172 24.8478 40.1195 24.8478 40.3555L24.6171 40.509C24.5549 40.8419 24.4542 40.9357 24.2343 41.1865C24.2889 40.7146 24.3642 40.4209 24.4632 39.9712H24.618L24.771 39.6652L24.5403 39.5113L24.771 39.3574V38.1307L24.5409 37.9006L24.7622 37.8262C24.8516 37.6594 24.9179 37.3592 24.9114 37.1712C24.9108 37.1467 24.724 36.6535 24.7094 36.6345C24.5955 36.4838 24.4048 36.3594 24.3841 36.174C23.8591 31.4314 23.5206 26.6548 22.9988 21.906C22.9658 21.6047 22.7865 21.2347 22.5083 21.1103C21.5458 20.6805 20.5378 20.3313 19.5544 19.9502C19.5085 19.5773 19.4869 19.193 19.3763 18.8377C19.3141 18.6394 19.0802 18.5623 18.9158 18.4803C19.1088 18.3425 19.4078 18.009 19.3246 17.7637C19.2931 17.67 18.9917 17.3815 18.9027 17.3032C18.7105 17.1356 18.4521 17.0647 18.2124 17.1403C18.1732 17.1526 17.9464 17.3479 17.9285 17.38C17.8955 17.4393 17.7916 17.6998 17.7887 17.7637C17.7641 18.2359 17.7379 18.7092 17.7017 19.1799C16.6423 18.8561 15.5776 18.5369 14.5305 18.1856C14.2975 18.1074 13.7217 18.4557 13.4951 18.5693C13.4957 19.4036 13.3996 20.2276 13.4204 21.0624C13.4221 21.1089 13.6356 21.4438 13.651 21.5223C13.7033 21.7954 13.7086 22.0903 13.717 22.3665C13.7287 22.7225 13.3073 23.206 13.0691 23.4443C13.2998 23.5897 13.4335 23.531 13.6472 23.3981C13.877 25.3049 14.1393 27.2067 14.3337 29.1164C14.7297 32.9997 15.0678 36.8888 15.4162 40.7765C15.4331 40.9652 15.4331 41.1418 15.5076 41.3132C15.6667 41.6776 15.8714 42.033 16.0203 42.4252L18.0961 42.5037L18.5581 42.1191L19.2495 42.1959L19.4069 42.5028L20.092 42.4257C20.398 45.5072 20.7031 48.5878 21.0091 51.6699C21.0515 51.728 21.0891 51.7651 21.1659 51.7753V52.9345L21.3189 53.0122L21.3957 53.7025L21.6188 53.9256C21.3505 54.3055 21.4711 54.3697 21.3365 54.7219C21.3911 54.7619 21.4696 54.8188 21.4728 54.8909C21.4889 55.3117 21.4728 55.736 21.4728 56.157H21.6057L21.7026 56.3302C21.6387 56.3825 21.552 56.4073 21.472 56.3857L21.5482 56.9145C21.2112 57.0269 20.7723 57.1522 20.4371 57.2389C20.1512 57.3128 19.8697 57.3119 19.5777 57.302C19.663 57.153 19.7252 57.0368 19.8514 56.9209C19.842 56.8838 19.833 56.8462 19.8227 56.8094C19.7162 56.6856 19.6668 56.6371 19.5161 56.6362C19.4461 56.6362 19.3538 56.7478 19.3439 56.8094C19.3202 56.9545 19.3894 57.109 19.461 57.2313H19.018V55.0063H19.1678L19.171 54.6903C18.9365 54.3452 18.6559 54.179 18.483 53.7793H18.1738V53.9323H17.9402L17.7971 54.1606C17.7054 54.184 17.6141 54.2068 17.5221 54.2298C17.4742 54.3177 17.3518 54.4313 17.3305 54.5081C17.3188 54.5475 17.3165 54.6594 17.3305 54.6997L17.1445 54.7934C17.1527 54.8571 17.2599 55.0235 17.3273 54.8973C17.3489 55.0547 17.3419 55.2854 17.266 55.4282C17.2575 55.4446 17.1682 55.512 17.1428 55.5216C17.2727 55.6799 17.2928 55.8919 17.3311 56.0849C17.5165 56.0674 17.5889 55.9798 17.664 55.8166C17.6865 55.769 17.7087 55.9126 17.7142 55.9649C17.7271 56.1027 17.7142 56.2487 17.7142 56.3868H17.0998V56.2341C16.7039 56.2341 16.3071 56.2242 15.9111 56.2341C15.8451 56.2356 15.7061 56.3988 15.6775 56.4595L15.566 56.2341H15.3356V56.0034C15.2786 56.042 15.2208 56.0805 15.1633 56.1188L15.1055 56.2341C14.862 56.23 14.6167 56.2087 14.3769 56.2432C14.2207 56.2654 13.8648 56.3439 13.7249 56.3924V56.5393C13.4066 56.6324 13.0945 56.6041 12.766 56.6172C12.6723 56.6207 12.5446 56.7183 12.4824 56.7784C12.4617 56.7378 12.4419 56.6969 12.4208 56.6552C12.401 56.6155 12.4357 56.4149 12.4547 56.367C12.6217 56.4239 12.8469 56.2563 12.9575 56.1357C12.9575 55.7958 12.9076 55.6054 13.0635 55.2939C12.9791 55.2609 12.8615 55.1073 12.8699 55.0063H12.1297L12.0696 55.1555C11.975 55.1041 11.8558 55.0203 11.8836 54.8909C11.9335 54.6649 12.1134 54.4573 12.2795 54.306C12.4316 54.3268 12.5055 54.3335 12.6124 54.2006C12.667 54.1332 12.6638 54.0152 12.6445 53.9337C12.766 53.8272 12.9006 53.7334 12.9654 53.5871C13.0007 53.508 13.0936 53.1281 13.0983 53.0507C13.103 52.9777 13.1143 52.9351 13.11 52.8569C12.9952 52.743 12.8985 52.6078 12.7269 52.5903C12.6241 52.5792 12.5125 52.5386 12.6124 52.5132L12.8045 52.4656C12.8045 52.251 12.8124 52.0372 12.8045 51.8229C12.7984 51.6775 12.5271 51.6205 12.4208 51.6313V51.4777H12.6506V51.0079C12.4848 51.0616 12.3887 50.9448 12.3055 50.8257C12.1834 50.6487 12.1087 50.3737 12.1081 50.1599C11.9974 50.1243 11.9166 50.0621 11.8911 49.9439H11.7206C11.7159 50.0183 11.6505 50.0744 11.5936 50.1121C11.5691 49.9132 11.5743 49.7094 11.506 49.5219C11.4707 49.4235 11.2146 49.2857 11.1171 49.2536C11.0724 49.0319 11.0794 48.8097 10.8087 48.7875L10.7328 48.5633L10.4966 48.4839C10.4405 48.2672 10.3835 48.2103 10.2568 48.0403L9.35045 48.8722C9.36126 49.0267 9.36798 49.1458 9.32973 49.2921C9.31717 49.3388 9.1443 49.5978 9.09904 49.637H8.99451C8.78835 49.8139 8.81522 50.0061 8.81522 50.2508H8.9691V50.4035C8.9691 50.4166 8.94282 50.4035 8.93056 50.4035H8.81522V50.8704C9.08503 50.9956 9.15803 51.1945 9.11656 51.4777H8.73843L7.97047 52.4755L8.12406 53.3956L8.43095 53.5547L8.3524 54.1545C8.18099 54.1784 7.70971 54.1446 7.54999 54.0584C7.24631 53.8961 6.81327 53.5325 6.5166 53.3205C6.1659 53.4572 5.81842 53.5801 5.5016 53.7845C5.44262 53.7702 5.38422 53.7556 5.32495 53.741C5.26129 53.7247 5.43327 53.6508 5.44875 53.5871C5.62804 52.8513 5.73871 52.0997 5.91069 51.363C6.07772 50.6487 6.30226 49.8323 6.5198 49.1379C6.60332 48.8681 6.60565 48.5239 6.58901 48.2433C6.52886 48.2908 6.44885 48.3215 6.40826 48.3863C6.13291 48.8229 5.82865 49.265 5.65958 49.7517C5.19442 51.0978 4.9468 52.6154 4.59699 54.007C4.1403 54.1346 3.69675 54.2529 3.22634 54.3145C3.11071 54.0397 3.01873 53.7877 3.16239 53.5086C3.02077 53.4555 2.80556 53.4175 2.7387 53.2805C2.25514 52.2004 1.78853 51.1323 1.31491 50.0586C1.28191 48.6669 1.29797 47.2709 1.29797 45.8778H0.837488L0.391602 45.4319C0.569138 45.2964 1.0743 45.0204 1.29797 44.9504L1.37506 44.1903L1.83379 44.0317L1.75787 43.4229L1.37506 43.0398V41.6587L1.98767 41.6537C1.96373 41.4633 1.90008 41.2744 1.91614 41.0834C1.94767 40.6968 2.03439 40.321 1.98855 39.9326C1.98066 39.8672 1.83847 39.633 1.83467 39.5495C1.80547 38.887 1.8446 38.2174 1.83467 37.5546C1.83379 37.5009 1.72633 37.3987 1.68166 37.3724C1.68166 36.7682 1.7348 36.1617 1.68166 35.5605C1.66472 35.3713 1.53186 35.0939 1.52806 34.8702C1.51638 34.1881 1.51872 33.6386 1.52193 32.9521C1.5231 32.5877 1.37039 32.1611 1.36571 31.7248C1.35199 30.4625 1.3225 29.1996 1.29739 27.9379C1.39346 27.8287 1.52485 27.6564 1.68166 27.6234C1.68166 26.9708 1.73568 26.3158 1.68166 25.6646C1.67173 25.5493 1.47872 25.1939 1.46412 25.0512C1.45185 24.9381 1.52252 24.6429 1.52019 24.5145C1.51873 24.3991 1.37564 24.1016 1.37506 23.9772C1.32863 18.7761 1.37506 13.5621 1.37506 8.35985C1.5818 8.31371 1.73685 7.98317 1.76167 7.79162C2.01454 5.85828 2.16989 3.86684 2.37195 1.92329L3.29087 1.85496C2.83419 4.19155 2.32377 6.51849 1.91906 8.86559C1.85219 9.25074 1.86708 9.83357 1.84226 10.2465C1.8408 10.271 1.84314 10.2973 1.84314 10.3233C1.84401 10.4079 1.85073 10.5139 1.87321 10.4316L4.2901 1.6929L5.36349 1.61669L4.2171 6.58449L4.52078 6.52229L6.20678 1.69349C11.2055 1.67918 16.2072 1.62428 21.2045 1.7551C22.4061 1.78664 23.8366 2.14492 25.0399 2.30786C25.5889 2.38232 26.3092 2.40305 26.8804 2.38231C26.9148 2.38173 27.1303 2.2442 27.1873 2.23018C27.2778 2.20799 27.4501 2.21558 27.5394 2.24099L27.6869 2.45999L28.6841 2.53678C28.9553 2.71228 29.0383 2.71987 28.9898 3.03523C28.9571 3.25043 28.781 3.5033 28.6788 3.69398C28.861 3.71004 29.0307 3.69544 29.1822 3.79239C29.7142 4.1314 30.3616 4.58049 30.8697 4.9633C32.3072 6.04721 33.5605 7.45202 34.513 8.97801V10.2079C34.3947 10.1957 34.261 10.2243 34.1839 10.3233C34.2125 10.4856 34.247 10.7008 34.4376 10.7385L34.3594 12.8911L34.5898 12.8926C34.7635 12.546 34.9188 12.23 35.1735 11.9339C35.2987 11.7879 35.4409 11.6425 35.5869 11.5172C35.7762 12.216 35.9922 12.9072 36.1152 13.6214C36.2104 14.1727 36.2705 14.7491 36.2743 15.3089C36.3012 18.7676 36.225 22.2497 36.2004 25.7114C36.0568 25.8285 36.0074 25.8804 35.9806 26.0483C35.9674 26.1266 35.9928 26.2127 36.0375 26.279C36.0836 26.3465 36.2004 26.4341 36.2781 26.4633L36.3564 27.1985L36.5027 27.1813C37.1229 24.393 37.7034 21.5968 38.2725 18.7977L38.8089 18.6461V18.0326C38.7221 17.9459 38.6328 17.8729 38.5791 17.7637C38.5785 17.7421 38.5814 17.6323 38.587 17.6107C38.8328 16.4891 39.0144 15.3521 39.2787 14.2349C39.8747 11.7211 40.6394 9.24461 41.177 6.71764C41.509 5.15777 41.6559 3.29715 41.8772 1.6929C43.3734 1.69349 44.8711 1.77817 46.3647 1.6929C47.8471 1.6091 49.4707 1.2768 50.9675 1.15475C52.386 1.03853 53.9134 1.01167 55.3405 0.994731C55.3659 0.993855 55.391 0.997065 55.4164 0.997649C55.5127 1.0032 55.6319 1.02101 55.5378 1.04087C55.3425 1.08175 55.1945 1.12467 55.0566 1.27155C54.9568 1.37754 55.0706 1.53756 55.1474 1.61523C57.922 1.66429 60.6966 1.73436 63.4712 1.76415C63.5597 1.76502 63.7095 1.79277 63.7778 1.8465H66.1944L66.2718 1.6929H73.2517C73.4517 2.26785 73.5986 2.86441 73.8515 3.41892C73.9227 3.57397 74.1934 3.84523 74.288 4.03299C74.434 4.32295 74.4924 4.67948 74.6679 4.95308C74.7923 5.14785 75.2578 5.47138 75.3334 5.72046C76.9026 10.8713 78.2975 16.1393 79.7703 21.3255C79.8641 21.3095 79.9487 21.2823 80.0142 21.2154C80.4148 19.8603 80.7704 18.4902 81.2189 17.1502C81.3063 16.8874 81.5363 16.6465 81.6193 16.3828C81.704 16.1154 81.6777 15.8456 81.6114 15.5795C81.704 15.3118 81.8009 15.0452 81.8745 14.7722C83.0302 10.4509 84.1848 6.12955 85.3411 1.80795L85.3718 1.6929C88.7344 1.6929 92.0994 1.56209 95.4592 1.6929C95.8665 1.70896 96.4593 1.77875 96.9166 1.84416C96.9645 1.85117 97.1519 1.99571 97.2235 1.99951C97.7117 2.02637 98.3491 1.94578 98.835 1.92504C99.2616 1.90665 99.7113 1.96505 100.139 1.99804C100.193 2.00184 100.293 2.10725 100.321 2.15339C100.485 2.15339 100.696 2.18551 100.829 2.0763C100.844 2.06491 100.92 2.01031 100.942 1.99337L100.867 1.6929H108.078C107.984 1.8827 107.87 1.97585 107.924 2.19164C107.95 2.29238 108.102 2.37998 108.194 2.36947C108.225 2.36567 108.412 2.25938 108.455 2.23398C108.472 2.13412 108.467 2.04973 108.423 1.96183L108.308 1.8465H108.538L108.616 1.6929H123.343L123.426 1.31155C124.342 1.37608 125.201 1.49668 126.143 1.53843C126.279 1.61056 126.473 1.64881 126.569 1.70809C126.684 2.03338 126.746 2.34231 126.794 2.68307C126.886 2.76834 127.048 2.85915 127.177 2.87755L127.256 1.6929H128.329L128.406 3.5363C128.712 3.74624 128.926 4.01927 129.161 4.30134H128.566C128.499 4.41201 128.411 4.59188 128.406 4.72328C128.376 5.74674 128.277 7.1936 128.477 8.1753C128.536 8.46059 128.674 8.78412 128.847 9.0186C128.992 9.21482 129.553 9.58741 129.793 9.81196C129.082 11.4142 128.364 12.974 127.612 14.5546C127.47 14.6232 127.496 14.7453 127.447 14.8107C127.423 14.8431 127.428 14.7325 127.414 14.6954C127.396 14.6478 127.358 14.6086 127.322 14.5733C127.285 14.6086 127.232 14.6323 127.21 14.6793C124.386 20.8119 121.579 26.9515 118.865 33.1328C118.81 33.1279 118.756 33.1235 118.702 33.1179C118.695 33.1179 118.532 33.0128 118.511 32.9909L117.975 33.3749L118.433 33.9131L113.754 44.2671H113.524C113.198 45.0473 112.852 45.8194 112.543 46.6063C112.473 46.7981 112.42 47.0209 112.383 47.2201C112.379 47.3138 112.491 47.4105 112.565 47.4122C116.943 47.4884 121.341 47.4613 125.721 47.489C125.745 47.3483 125.768 47.2078 125.792 47.0668C125.82 46.8995 125.822 46.9301 125.99 46.9576L126.411 47.0294L126.489 47.4876C126.764 47.4984 127.019 47.4805 127.259 47.3322C127.455 47.4791 127.791 47.4122 128.023 47.4122V48.716C127.626 48.7662 127.229 48.8074 126.834 48.8652C126.754 48.8769 126.649 48.9884 126.639 49.0614C126.595 49.3873 126.589 49.7649 126.565 50.0966C125.504 49.5917 124.449 49.0728 123.382 48.5817C123.276 48.5338 123.113 48.5061 122.998 48.4938C122.904 48.5501 122.941 48.5031 122.847 48.6039C121.913 49.6116 120.967 50.6102 120.006 51.5922C119.921 51.678 119.771 51.7411 119.658 51.7811L119.509 51.6328C119.662 51.4605 119.815 51.3817 120.007 51.2669C120.095 51.2132 120.163 51.0333 120.183 50.9416C119.478 51.054 118.763 51.0178 118.05 51.0178L117.825 50.7165C117.59 50.7416 117.454 51.0108 117.51 51.2094C117.59 51.49 117.702 51.7607 117.736 52.0536C117.769 52.34 117.746 52.6463 117.743 52.9351C117.607 52.9351 117.426 52.917 117.311 53.009L117.358 53.1967C117.528 53.2511 117.594 53.2143 117.743 53.1658V54.01C117.122 54.7102 116.486 55.4013 115.883 56.1188C115.871 56.134 115.829 56.2327 115.823 56.2505C115.917 56.5679 115.948 56.784 116.03 57.0777C115.969 57.0868 115.854 57.0876 115.787 57.0523C115.595 56.9484 115.341 56.8094 115.301 56.5793C115.29 56.5156 115.332 56.4417 115.371 56.3933L115.059 55.9266H114.539L114.444 56.7714C114.214 56.9866 113.977 57.186 113.73 57.3741C113.58 57.269 113.37 57.3075 113.198 57.3075C113.233 57.4544 113.181 57.5233 113.061 57.608L113.14 57.7671L111.53 57.8457L111.456 57.9917L111.165 57.9978Z" fill="#14120E"/>
<path d="M86.374 42.6565C86.3685 42.618 86.3641 42.5797 86.3685 42.5412C86.4135 42.4521 86.5127 42.4197 86.5989 42.4644C86.6179 42.4898 86.6377 42.5152 86.6573 42.5412L86.5992 42.6565H86.374Z" fill="#14120E"/>
<path d="M77.6045 58.8804C77.5297 58.8202 77.5429 58.7341 77.6357 58.7566C77.8457 58.8065 77.9473 58.8632 78.1064 59.0019C77.8828 59.0118 77.7683 59.01 77.6045 58.8804Z" fill="#14120E"/>
<path d="M33.9378 55.1023C33.9246 55.0833 33.9086 55.0655 33.8992 55.0448C33.8715 54.9794 33.9053 54.8235 33.9223 54.7627C33.9801 54.8042 34.0376 54.8448 34.096 54.8865C34.1068 54.9134 34.1176 54.9408 34.1293 54.968C34.1261 55.0565 34.08 55.0947 34.0146 55.1409C33.9886 55.1277 33.9632 55.1155 33.9378 55.1023Z" fill="#14120E"/>
<path d="M69.0712 50.1161C69.058 50.0969 69.0341 50.0817 69.0326 50.0586C69.0151 49.8233 69.0078 49.6457 68.9497 49.4127C69.0472 49.458 69.1258 49.5111 69.1842 49.5987L69.195 50.1783C69.1532 50.1576 69.1126 50.1369 69.0712 50.1161Z" fill="#14120E"/>
<path d="M10.2341 48.87C10.0957 48.8008 10.1003 48.5415 10.1818 48.6715C10.2195 48.7313 10.211 48.6394 10.2341 48.663L10.3993 48.743L10.317 48.9115C10.2893 48.8978 10.2618 48.8838 10.2341 48.87Z" fill="#14120E"/>
<path d="M84.6796 56.2341C84.6489 55.9804 84.5721 55.736 84.4667 55.5053C84.2477 55.0609 84.0871 54.6226 83.8377 54.2006C83.7854 54.113 83.7957 53.9869 83.8377 53.8938C83.89 53.7924 83.9986 53.4949 84.029 53.4464C84.1899 53.9632 84.4059 54.4591 84.5852 54.968C84.6851 55.2524 84.4842 55.3108 84.7575 55.6122L84.9818 55.6192C84.9972 55.5628 85.0118 55.5068 85.0262 55.4513C85.0524 55.3538 85.0594 55.4808 85.0612 55.5815L85.0647 56.2341H84.6796Z" fill="#14120E"/>
<path d="M128.674 48.87C128.658 48.8569 128.633 48.8499 128.626 48.8315C128.59 48.7369 128.575 48.6253 128.55 48.5278C128.617 48.4761 128.669 48.434 128.752 48.4133C128.936 48.5056 128.81 48.7885 128.77 48.9459C128.738 48.9199 128.706 48.8954 128.674 48.87Z" fill="#14120E"/>
<path d="M118.204 53.3572C118.204 52.9977 118.174 52.7927 118.124 52.4362C118.095 52.2332 118.156 51.981 118.206 51.7842H119.122L119.276 52.3232L118.919 52.6809C118.872 52.6415 118.826 52.6032 118.779 52.5647C118.621 52.6161 118.489 52.6876 118.367 52.8006L118.434 53.012L118.644 53.0129C118.562 53.2357 118.38 53.3796 118.204 53.5271V53.3572Z" fill="#14120E"/>
<path d="M39.6709 53.2996C39.7646 53.2112 39.8753 53.132 39.9985 53.0888L40.1323 53.142L39.866 53.3557C39.9614 53.2661 39.9355 53.2982 39.9214 53.2996H39.6709Z" fill="#14120E"/>
<path d="M98.5269 52.9321C98.211 52.9084 97.895 52.8839 97.5791 52.8591C97.5338 52.5531 97.6144 52.5487 97.7222 52.2833C97.7444 52.2281 97.742 52.0389 97.7222 51.9767C97.7128 51.9498 97.6968 51.9253 97.6793 51.9037C97.4708 51.6607 97.168 51.5746 96.8786 51.4782C96.8728 51.1579 96.7849 50.8174 96.8949 50.519C97.3659 49.2403 98.0749 47.8583 98.6306 46.5936C99.1089 48.2528 99.7408 49.8632 100.24 51.5159C100.251 51.553 100.173 51.9837 100.189 52.0535C100.212 52.1551 100.356 52.6062 100.401 52.6868C100.148 52.7554 99.8617 52.8007 99.6012 52.7794C99.5486 52.7747 98.9953 52.6486 98.9483 52.6293L98.5655 52.9353C98.5532 52.9347 98.5401 52.933 98.5269 52.9321Z" fill="#14120E"/>
<path d="M72.3351 58.7649C72.3243 58.6373 72.3228 58.5097 72.331 58.3821L73.558 58.3053V57.9216L72.3243 57.8448C72.4081 57.7487 72.4388 57.6871 72.4843 57.5764V57.4226C72.4843 57.4226 72.4604 57.3706 72.4458 57.3458C72.4297 57.3189 72.2951 57.1951 72.2598 57.1598L72.3465 56.8891C72.4221 56.913 72.5602 56.97 72.555 57.0792C72.6718 57.0552 72.7903 57.0383 72.9063 57.0082C72.9463 56.9983 73.0155 56.8882 73.0254 56.8485C73.3261 56.9083 73.4266 56.9037 73.6736 57.116C73.7145 57.1513 73.7525 57.1895 73.7881 57.2313V57.4611H73.0975L73.1854 57.6918C73.6228 57.5905 74.1525 57.4865 74.5937 57.4667C74.7362 57.4594 74.9505 57.4996 75.0866 57.542C75.1514 57.6687 75.1465 57.7549 75.1211 57.8717C74.9943 57.9908 74.8758 58.0025 74.7114 57.9937L74.5546 58.2282L74.7891 58.385C74.4106 58.5143 74.0649 58.7468 73.6736 58.8256C73.3813 58.884 72.6519 58.8043 72.3351 58.7649Z" fill="#14120E"/>
<path d="M68.9684 52.3603C68.9652 52.3308 69.0832 52.0534 69.1054 52.0058C69.1375 52.0604 69.1784 52.1378 69.186 52.2064C69.1915 52.2526 69.1792 52.3971 69.1714 52.4216L68.9637 52.374C68.9594 52.3726 68.967 52.365 68.9684 52.3603Z" fill="#14120E"/>
<path d="M75.8977 58.5351C75.8665 58.522 75.8341 58.5091 75.8025 58.4966C75.7427 58.4729 75.7871 58.456 75.8411 58.4198L75.9734 58.3316L76.0808 58.4922C76.11 58.517 76.0116 58.5243 75.9748 58.5351C75.9503 58.5407 75.924 58.5351 75.8977 58.5351Z" fill="#14120E"/>
<path d="M23.3516 54.8149C23.2524 54.9157 23.1954 54.9925 23.1671 54.8543C23.161 54.8225 23.1586 54.7043 23.1601 54.6613C23.2348 54.6015 23.2156 54.5606 23.3516 54.5457C23.4153 54.539 23.4798 54.5413 23.5438 54.5457C23.4909 54.6517 23.4346 54.7311 23.3516 54.8149Z" fill="#14120E"/>
<path d="M1.56607 53.6255C1.54067 53.6123 1.51293 53.6033 1.48928 53.5869L1.33627 53.4342C1.33627 53.4342 1.2986 53.3849 1.29772 53.3571C1.28079 52.9244 1.0688 52.4633 1.59848 52.2543C1.85515 52.5848 1.96348 52.6952 1.90684 53.125L1.61834 53.1192L1.60608 53.4734L1.83442 53.6255H1.56607Z" fill="#14120E"/>
<path d="M100.752 52.7815C100.63 52.7815 100.522 52.7692 100.616 52.6916C100.724 52.6025 100.867 52.5602 101.008 52.573C100.944 52.6916 100.889 52.7815 100.752 52.7815Z" fill="#14120E"/>
<path d="M80.2026 56.235C80.5557 56.028 80.6409 55.9491 80.6926 55.5438H80.9224V56.1564L80.2026 56.235Z" fill="#14120E"/>
<path d="M25.012 54.3014C24.9474 54.2345 24.8911 54.1653 24.8458 54.083C24.1801 53.9516 23.7012 53.7787 23.083 53.5416V53.242H23.5435L23.6965 53.6257L24.0811 53.7793L24.2338 53.6257H25.0003L25.075 53.3273C25.1042 53.3103 25.2234 53.2607 25.2695 53.2552C25.4517 53.2321 25.7323 53.1781 25.883 53.2995C26.0775 53.4563 25.9875 53.7235 25.8769 53.8894C25.8585 53.9162 25.5986 54.0906 25.5764 54.097C25.4248 54.1361 25.2596 54.1609 25.1156 54.2085C25.0972 54.2144 25.0242 54.2877 25.012 54.3014Z" fill="#14120E"/>
<path d="M73.2525 55.8506C73.0443 55.6888 72.809 55.563 72.564 55.4675C72.437 55.2523 72.3456 55.014 72.2661 54.7804C72.5289 54.3634 72.7383 53.9844 72.7135 53.4787C72.5844 53.3312 72.4346 53.1791 72.2556 53.0929C72.2302 51.8259 72.2054 50.5581 72.1823 49.292C72.18 49.195 72.1817 49.099 72.1823 49.0029C73.2534 50.7972 74.2441 52.636 75.246 54.4691C75.1114 54.4913 74.9972 54.5305 74.8801 54.595C74.8448 54.7287 74.8141 54.8493 74.7478 54.9682C74.7192 55.0172 74.2751 55.4476 74.2106 55.49C73.8607 55.7183 73.7375 55.6952 73.3673 55.812C73.3287 55.8234 73.2902 55.8374 73.2525 55.8506Z" fill="#14120E"/>
<path d="M85.4102 56.3488C85.3994 56.3234 85.374 56.2994 85.3778 56.2717C85.417 55.9391 85.5101 55.61 85.5256 55.2745C85.5586 54.5498 85.5209 53.8201 85.5501 53.0941C85.5521 53.0308 85.5831 53.2174 85.5849 53.2804C85.6062 53.9713 85.6646 54.6604 85.6768 55.3516C85.6838 55.742 85.6301 56.1435 85.6024 56.5333C85.539 56.4758 85.4701 56.411 85.4102 56.3488Z" fill="#14120E"/>
<path d="M9.16014 57.4227C9.14788 57.3973 9.12335 57.3742 9.12189 57.3456C9.11021 57.0528 9.12189 56.757 9.12189 56.4632L9.42849 56.387C9.43462 56.3616 9.45623 56.2763 9.46703 56.2343C9.48251 56.1756 9.5339 56.2001 9.54383 56.2606L9.58296 56.4641L9.81218 56.5409L9.88576 56.8352L9.42995 56.9993L9.42469 57.3342L9.18087 57.4645L9.16014 57.4227Z" fill="#14120E"/>
<path d="M33.7578 56.7061C33.7785 56.5662 33.8124 56.4278 33.8609 56.2949C33.8769 56.2386 33.924 56.2532 33.9377 56.3104C33.9824 56.4926 33.987 56.7338 33.9724 56.9198L33.7578 56.7061Z" fill="#14120E"/>
<path d="M46.4128 57.4996C46.4344 57.4141 46.4551 57.328 46.4767 57.2427L46.2583 57.1507C46.4037 57.09 46.5404 56.9606 46.635 56.8353C46.6359 56.6783 46.7419 56.4195 46.7197 56.2981L46.9363 56.3241C46.9001 56.4703 46.8902 56.6552 46.7097 56.6856C46.7097 57.1066 46.8356 57.4389 46.3783 57.6366C46.3897 57.5905 46.4011 57.5449 46.4128 57.4996Z" fill="#14120E"/>
<path d="M8.58767 57.0782C8.61921 56.9643 8.64227 56.8484 8.65541 56.7322C8.65454 56.6784 8.59468 56.328 8.58008 56.2816L8.73688 56.2688C8.76316 56.321 8.81076 56.3669 8.81514 56.4256C8.83821 56.6907 8.81514 57.0268 8.81514 57.2998L8.58767 57.0782Z" fill="#14120E"/>
<path d="M49.8159 57.302C49.7423 57.312 49.6153 57.2568 49.5508 57.2282L49.7015 57.0775V55.1296C49.8658 55.2093 50.0504 55.367 50.1742 55.5054C50.265 55.6058 50.3094 55.7521 50.3164 55.8888C50.338 56.3072 50.3357 56.8045 50.305 57.2206C50.1418 57.2469 49.9789 57.2758 49.8159 57.302Z" fill="#14120E"/>
<path d="M76.5759 57.129C76.5446 57.0008 76.5344 56.8647 76.5505 56.7325C76.5505 56.7316 76.6267 56.5792 76.6276 56.5792C76.6614 56.5616 76.7035 56.5792 76.742 56.5792C76.676 56.7146 76.7543 56.9477 76.7835 57.0928L76.5768 57.1337C76.5753 57.1337 76.5759 57.1299 76.5759 57.129Z" fill="#14120E"/>
</svg>
