<svg width="150" height="48" viewBox="0 0 150 48" fill="none" xmlns="http://www.w3.org/2000/svg">
<path d="M32.5828 7.17652H39.4828V8.50308H32.5828V8.57808H27.9187V0.473389H29.6297H32.5828H39.4453V1.79995H32.5828V7.17652ZM4.4625 0.473389H2.33906V8.57808H7.00312V8.50308H14.2734V7.17652H7.00781V5.0437H10.3687V3.71714H7.00781V1.80464H14.2781V0.478078H7.00781H4.4625V0.473389ZM51.5391 0.473389H52.1672V8.57808H47.5031V7.72027H45.1266V8.54058H40.4625V2.69526L42.4641 0.473389H43.8422H45.1313H47.5031H51.5391ZM47.4984 5.63901V1.80464H45.1266V5.63901H47.4984ZM63.1547 0.473389H65.1234V5.41401H60.4594V5.37652H57.9375V8.57808H53.2734V0.473389H55.4578H57.9422H60.4641H63.1547ZM60.4547 4.04995V1.80464H57.9375V4.04995H60.4547ZM113.714 5.67651L115.762 8.58277H110.822L108.459 5.62964V8.58277H103.795V0.478078H105.98H108.464H110.986H113.686H115.655V5.67651H113.714ZM108.459 1.80464V3.47808H110.981V1.80464H108.459ZM146.475 0.473389H142.706H141.717L138.516 4.77183L135.314 0.473389H134.264H130.556H129.506V8.57808H134.264V6.34683L135.675 8.57808H135.689H141.352H141.366L142.711 6.44995V8.57808H147.469V0.473389H146.475ZM126.67 0.473389H128.475V6.3187L126.67 8.32495V8.54058H126.478H123.811H121.308H118.969H116.639V2.69526L118.636 0.473389H118.969H121.303H123.806H126.67ZM123.806 7.21401V1.80464H121.303V7.21401H123.806ZM22.1437 4.04995H19.9266V1.80464H26.7516V0.478078H19.9266H17.2594H16.9312V0.796827L15.2578 2.43745V5.3812H18.9047H19.9219H22.1437V7.1812H15.2578V8.50776H22.1437V8.54526H24.8109L26.8078 6.74995V4.05464H24.8156L22.1437 4.04995ZM68.2359 0.473389H66.1125V8.57808H70.7812V8.50308H78.0516V7.17652H70.7812V5.0437H74.1469V3.71714H70.7812V1.80464H78.0516V0.478078H70.7812H68.2359V0.473389ZM92.9953 0.473389H90.8719V8.57808H95.5359V5.03901H98.8969V3.71245H95.5359V1.79995H102.806V0.473389H95.5359H92.9953ZM54.1125 45.1031L54.1266 44.8453H54.0938L54.1125 45.1031ZM54.4359 40.1859L54.5578 38.3343H54.4359V40.1859ZM69.3469 43.1953L69.5813 43.1671L69.1453 42.1312L69.3469 43.1953ZM54.8578 45.2484L55.5047 38.3343H54.5625L54.8578 45.2484ZM56.2734 44.3578L56.5266 38.3343H55.7016L56.2734 44.3578ZM58.1063 38.3343H56.5875L56.7047 46.2328L56.8125 47.4656H56.9156L57.1641 44.5031L57.7078 47.4656H58.5797L58.7297 46.3781H58.0969L58.1063 38.3343ZM58.9734 44.6578L59.025 44.2781L59.0672 47.4609H59.4984L59.7937 45.6937V38.3343H58.9734V44.6578ZM78.6281 47.4656H78.8156L78.7594 46.2562L78.6281 47.4656ZM79.5094 47.4656H79.9875L79.7297 44.8406L79.5094 47.4656ZM81.0844 47.4656H81.1687L81.1453 47.0015L81.0844 47.4656ZM70.125 47.4093L70.2328 46.6406L69.9797 46.6265L70.125 47.4093ZM71.0156 47.1093L71.0859 46.6875L71.0109 46.6828L71.0156 47.1093ZM72.0563 47.4656H72.3938L72.8063 46.889L72.8156 46.8L72.0469 46.7531L72.0563 47.4656ZM73.7906 10.2515L73.9453 15.0562V34.0781H69.6L71.4984 40.9828L70.9547 42.0234L70.95 41.5218L70.8516 42.2203L70.65 42.6046L65.9625 32.6578L66.9703 30.3187L64.7812 31.8281L63.7734 35.625L64.3875 36.2953L65.5687 33.5531L69.0656 41.9249L68.9578 43.2421L68.6062 43.2843L68.3391 40.2562L67.7672 47.4609H67.7016L67.8047 42.3234L67.4203 42.2812L67.3031 39.2906L67.2141 42.2578L65.85 42.1031L65.8031 47.4656H65.2875L65.1375 45.5156L65.1844 42.5484L64.9031 42.5296L64.7016 39.9609L64.5844 42.5109L64.3453 42.4968L64.4297 45.8624L64.3594 47.4656H64.0734L63.4359 39.2203L63.3047 47.1046L61.8328 41.7468L61.7953 40.7812L61.7344 41.3906L60.8953 38.3343H61.65V38.8499H66.5156V37.1718H61.6406V37.1906H60.5719L59.8031 34.3921V37.1906H58.9828V36.6656H59.6953V35.7843H59.2125V35.3437H58.4484V35.7843H57.9516V35.0296H56.4281V36.0984H56.7V36.2437V36.6656V37.1906H54.4359V31.6828H53.925V34.1203H53.5031V35.4656H53.925V37.1906H53.4891L53.2266 33.8578V37.1906H52.1297L51.6563 27.2296L51.6141 37.1906H49.9125V34.0078V27.0093V19.9687L53.9484 20.0437V19.0359L49.9125 18.9843V17.25V14.9062V10.8421L50.2219 12.5765L50.4281 10.2515H50.6437L50.9625 14.0718L51.2859 10.2515H51.8344L51.9984 15.0421L52.1672 10.2515H64.0594H70.6125L71.0437 16.1859L71.3438 10.2515H71.8219L72.3047 16.9359L72.45 10.2515H73.2469C73.2469 10.2515 73.7906 10.2515 73.7906 10.2515ZM64.0594 17.2546H59.7984V27.0093H64.0594V17.2546ZM40.1437 21.3234L40.6031 20.3249L39.4969 20.3062L39.7078 20.6062L40.1437 21.3234ZM46.2938 46.664L47.0391 41.8968L47.2641 46.289L47.9344 40.1109L48.2344 46.664L48.2437 46.5187V38.3343H45.8953L46.2938 46.664ZM43.8375 45.9234L45.1031 46.5937L45.3422 38.339H43.3266L43.8375 45.9234ZM35.4984 35.8125L35.8781 36.5718L35.7234 31.1765L35.4984 35.8125ZM37.1719 45.3656L37.0266 44.8406L37.4203 39.8156L36.525 37.8609L35.8828 36.5718L36.1734 46.589L37.2891 45.9984L37.1719 45.3656ZM0 17.2546H6.28125V47.4656H6.3L6.43594 42.9421L6.60938 37.1343L6.98438 46.514L7.65469 38.0999L8.1 43.1624L8.4 39.5859L9.44062 45.2437L10.2609 39.3609L10.3359 44.9484L11.3062 39.1406L11.3812 45.7687L12.1266 44.7281L13.0219 35.8687L13.3969 45.7734L14.5125 43.3171L14.6578 34.3078L15.4688 44.8781L15.9141 35.0484L16.1625 38.2171V17.25H23.3344V10.2515H0V17.2546ZM34.6828 37.8609L35.0203 38.4187L34.7953 39.8718L34.0078 40.9078L33.7922 41.3249L33.5297 41.8078L34.0172 46.2937L34.2422 41.9015L34.9875 46.6687L35.5078 35.8171L35.1891 35.1843L34.6828 37.8609ZM32.9203 42.914L32.775 43.4671L33.0422 46.664L33.2391 42.3281L32.9203 42.914ZM81.7313 47.4656H81.9703L81.8109 46.1062L81.7313 47.4656ZM47.3156 13.0125L47.3016 10.2562H46.2281L45.5906 16.2796L45.3984 10.2562H44.1094L43.9453 17.8359L43.4016 10.2562H43.0266L42.6797 17.0812L42.1828 10.2562H28.875L24.9094 20.9062V42.15L25.0031 44.3624L25.6687 37.289L26.4141 45.2578L26.7141 38.2593L27.1594 45.1078L28.0547 33.8625V45.1078L28.2516 44.9718C28.3453 43.8375 28.4625 42.7312 28.5938 42.3093C28.6547 42.1031 28.7859 41.85 28.9406 41.5921L29.6156 27.2437L29.6719 40.5C29.8547 40.2562 30.0234 40.0359 30.1734 39.8531C30.4734 39.3656 30.6609 39.0468 30.6609 39.0468C30.6609 39.0468 31.5 37.9874 31.2188 37.7062C30.9375 37.4249 30.6047 35.8078 30.7688 35.0249C30.9375 34.2421 31.2188 32.0624 31.05 31.8984C30.8813 31.7203 30.9375 29.0437 30.9375 29.0437C30.9375 29.0437 29.2078 26.7562 29.6531 25.5796C30.0984 24.4078 31.1625 22.7296 31.1625 22.7296C31.1625 22.7296 31.4438 20.0484 32.5594 18.989C33.675 17.9296 34.6828 18.9328 34.6828 18.9328L35.9672 17.4234C35.9672 17.4234 34.9078 15.3562 36.75 14.5171C38.5922 13.6781 39.5438 15.8015 39.5438 15.8015L41.1609 16.8046L39.6516 17.3624L39.9891 18.2578L39.4547 18.7406L39.9891 18.8718L40.2141 18.4781L40.9547 18.4875L40.9969 18.0281H40.4344L40.5469 17.189L43.3406 17.1328L43.4531 18.5203L47.9766 18.5859L48.0328 19.2L48.2484 19.2468V10.2468H47.7938L47.3156 13.0125ZM47.8594 20.6062H45.2156L44.0625 23.1187L42.0516 26.0249L39.5953 24.8531L39.2578 25.8609L40.2656 26.1421L39.4266 29.2125L38.1984 29.6062L38.3109 31.3359L39.2625 33.0093L39.7641 34.8515L40.7156 37.139L41.2734 37.0828L41.1562 40.2656L40.7625 40.6593L41.1938 47.5265H41.4469L41.5219 42.7968L41.8875 47.5265H42.2203L42.2672 38.3296L43.0875 46.2234L43.1438 38.339H42.975V37.7531H42.4406V37.1953H43.1578L43.1672 36.0234L43.2469 37.1953H45.375L45.5484 31.1812L45.8391 37.1953H48.2437V19.9406H48.0844L47.8594 20.6062ZM52.4766 44.5781L53.2219 45.0984V38.3343H52.1813L52.4766 44.5781ZM49.9125 44.1281L50.3156 40.8562L50.6156 46.0687L50.9906 39.9609L51.5859 45.0984L51.6141 38.3343H49.9172L49.9125 44.1281ZM53.9203 42.6796V38.3343H53.5781L53.9203 42.6796ZM41.6063 23.7328L42.6656 23.0625V21.389L42.6188 20.6812L41.1562 22.9875L41.6063 23.7328ZM42.2203 18.0375L41.4938 17.9812L41.4188 18.5015L42.5719 18.5156L42.5531 18.4828L42.2203 18.0375ZM98.3438 43.2937L97.9219 47.4656H98.9109L98.8312 45.3375L98.3438 43.2937ZM121.72 44.6531L121.856 44.2734L121.758 41.9765L121.72 44.6531ZM120.277 47.5218H120.68L120.773 47.2546L120.755 42.9046L120.277 47.5218ZM126.492 15.3656V21.8343H126.731L126.792 23.5406L127.017 24.4453L127.059 24.0562L127.008 10.9218L126.492 15.3656ZM123.736 10.2515H123.619L123.361 15.9093L122.747 10.2515H122.662L122.466 14.1234L121.861 10.2515H121.678L120.975 24.8437L120.553 10.2515H119.255L118.594 20.0062L118.523 10.2515H118.477L117.703 17.7L117.666 10.2515H104.972L101.006 20.9015V35.5687H105.047V47.5171H106.697L106.552 44.0671V28.0359L107.203 36.2343V27.8906H108.061L108.769 42.8578L108.83 27.8906H109.177L109.434 30.1265L109.57 27.8906H110.03L110.105 29.2359L110.269 27.8906H110.325V17.3015H115.008V33.989L115.186 27.8906H116.039V46.8281L115.983 46.4718L115.931 47.5125H118.219V35.8406H121.181V28.8515L121.312 30.1453L121.5 21.825H121.687L122.597 30.8625L122.541 21.8531L122.55 21.825H123.75L124.2 29.264L124.341 27.4312V17.1937L124.331 17.3203L123.736 10.2515ZM113.714 47.5218H114.487L114.131 43.2796L113.714 47.5218ZM114.97 47.5218H115.406L115.097 44.6906L114.97 47.5218ZM119.395 47.5218H119.911L119.859 40.5984L119.395 47.5218ZM137.958 47.4093L137.508 42.3468L137.1 47.4656H138.923L138.253 43.8375L137.958 47.4093ZM84.0469 47.4656H84.1219H84.6375L84.0469 40.0031V47.4656ZM139.58 47.4656H140.166L140.114 43.6124L139.58 47.4656ZM140.114 10.3265V22.3312L138.248 29.0578L136.378 22.3312V10.3265H132.127L132 18.7406L131.7 11.6671L131.03 18.7453L130.284 10.7765L129.984 17.775L129.539 10.9265L128.644 22.1718V10.9265L127.898 11.4468L127.406 21.8343H127.969L128.719 25.4437L128.934 21.8624L129.497 26.9156L129.783 21.8343H129.825V35.789L130.664 39.1593V35.8546H130.809L131.189 41.264L131.241 41.4843L131.461 35.8546H131.677L132.267 44.0906L132.291 35.8546H133.744L134.752 46.5796L134.691 47.4703H135.197L135.15 40.7156L134.887 44.5781L134.742 35.8593H135.277L135.75 37.9734L135.722 35.8593H136.087L136.758 39.7031L136.683 35.8593H137.039L137.817 41.0484L137.991 35.8593H138.53L139.088 38.8078L139.064 35.8593H139.336L139.814 39.6515L140.077 34.4859L140.822 45.314L140.461 47.4703H141.22L141 34.9453L141.708 34.3781L142.383 44.7843L142.111 47.4703H143.128L142.852 40.1156L142.458 44.0343L142.598 34.3171L143.489 41.1234L143.334 34.1203L144.45 41.1234L144.389 44.8406L144.839 43.0265L144.637 40.4531L144.802 34.9218L145.42 40.6828L145.481 40.4343L145.153 33.7828H145.181V18.3562L145.57 15.8578H145.617L146.348 31.1062L146.789 15.8578H147.113L148.064 16.3593L148.734 26.264L148.809 16.064L149.616 23.8171L149.63 23.7562L149.667 15.8578H150V10.3265H140.114ZM145.772 39.3421L145.777 39.3281V39.2999L145.772 39.3421ZM135.595 47.4656H136.078L136.055 43.0171L135.595 47.4656ZM112.594 47.5218H112.969L112.711 45.4359L112.594 47.5218ZM136.294 47.1843L136.284 47.4656H136.711L136.467 41.3765L136.294 47.1843ZM132.309 45.7125L132.745 47.4656H133.12L132.783 35.8687L132.309 45.7125ZM95.3812 47.4656H95.9344L95.8875 43.8375L95.3812 47.4656ZM93.7406 47.4656H94.6547L94.0266 44.0578L93.7406 47.4656ZM92.0625 47.4093V47.4656H92.4703L92.2359 41.6015L92.0625 47.4093ZM92.8922 47.4656H93.7125L93.2812 42.5718L92.8922 47.4656ZM85.1859 47.4656H85.5187L85.3875 44.3953L85.1859 47.4656ZM87.2297 47.4656H87.4594L87.3984 43.4249L87.2297 47.4656ZM86.0531 47.4656H86.8125L86.4281 43.4249L86.0531 47.4656ZM108.272 47.5218H108.778L108.473 42.8296L108.272 47.5218ZM109.809 47.5218V38.4375L109.087 47.5218H109.809ZM96.2859 47.4656H96.9703L96.9281 43.6124L96.2859 47.4656ZM111.698 47.5218H112.223L112.041 44.5406L111.698 47.5218ZM110.967 40.4859L110.634 47.5218H111.441L111.412 40.4859H110.967ZM106.894 47.5218H107.958L107.428 41.864L106.894 47.5218ZM85.5609 17.1796V10.3312H80.4984L80.3625 14.1562L80.2312 10.3312H79.5703L79.3266 13.1812L79.0922 10.3312H78.7125L78.5906 11.6906L78.3469 10.3312H76.9547L76.7297 11.9015L76.7203 10.3312H75.9984L75.6891 12.1218L75.6797 10.5187V39.3515H76.3219L76.1156 46.4953L76.1578 47.0437L76.4953 39.6609L76.4812 39.3515H76.5094L76.6078 37.214L76.7766 39.3515H78.9422L79.0641 32.4609H80.1516L80.325 39.3515H82.4625L82.4297 47.4703H83.1516L82.7109 38.114V36.7312H84.8578L85.0266 27.9984H86.4516L86.6953 36.7312H90.525V41.0296H92.7047V37.3453H94.9359V35.5781H96.5016L93.4641 22.8281L98.9625 10.2609H88.5891L85.5609 17.1796ZM101.18 47.5218H102.173L101.545 39.5156L101.18 47.5218Z" fill="black"/>
</svg>
