<svg width="101" height="101" viewBox="0 0 101 101" fill="none" xmlns="http://www.w3.org/2000/svg">
<path d="M91.5388 101H9.54132C7.03204 101 4.62554 100.003 2.85122 98.2289C1.07689 96.4545 0.0800781 94.048 0.0800781 91.5388V9.54132C0.0800781 7.03204 1.07689 4.62554 2.85122 2.85121C4.62554 1.07688 7.03204 0.0800781 9.54132 0.0800781H91.5388C94.048 0.0800781 96.4545 1.07688 98.2289 2.85121C100.003 4.62554 101 7.03204 101 9.54132V91.5388C101 94.048 100.003 96.4545 98.2289 98.2289C96.4545 100.003 94.048 101 91.5388 101ZM91.5388 6.38757H31.6176V9.54132C31.6176 10.3777 31.2853 11.1799 30.6938 11.7714C30.1024 12.3628 29.3002 12.6951 28.4638 12.6951C27.6274 12.6951 26.8252 12.3628 26.2338 11.7714C25.6423 11.1799 25.3101 10.3777 25.3101 9.54132V6.38757H19.0026V22.1563C19.0026 22.9927 18.6703 23.7949 18.0789 24.3863C17.4874 24.9778 16.6852 25.3101 15.8488 25.3101C15.0124 25.3101 14.2102 24.9778 13.6188 24.3863C13.0273 23.7949 12.6951 22.9927 12.6951 22.1563V6.38757H9.54132C8.70489 6.38757 7.90272 6.71984 7.31128 7.31128C6.71984 7.90272 6.38757 8.70489 6.38757 9.54132V91.5388C6.38757 92.3752 6.71984 93.1774 7.31128 93.7688C7.90272 94.3602 8.70489 94.6925 9.54132 94.6925H37.925V41.0788C37.925 40.2424 38.2573 39.4402 38.8488 38.8488C39.4402 38.2573 40.2424 37.925 41.0788 37.925H51.1203C51.8643 35.8208 53.3282 34.0473 55.2533 32.9181C57.1783 31.7888 59.4407 31.3764 61.6404 31.7538C63.8401 32.1312 65.8356 33.2741 67.2742 34.9805C68.7127 36.6869 69.5017 38.8469 69.5017 41.0788C69.5017 43.3107 68.7127 45.4707 67.2742 47.1771C65.8356 48.8835 63.8401 50.0264 61.6404 50.4038C59.4407 50.7812 57.1783 50.3688 55.2533 49.2395C53.3282 48.1102 51.8643 46.3368 51.1203 44.2325H44.2325V94.6925H91.5388C92.3752 94.6925 93.1774 94.3602 93.7688 93.7688C94.3602 93.1774 94.6925 92.3752 94.6925 91.5388V88.385H78.9238C78.0873 88.385 77.2852 88.0527 76.6937 87.4613C76.1023 86.8699 75.77 86.0677 75.77 85.2313C75.77 84.3948 76.1023 83.5927 76.6937 83.0012C77.2852 82.4098 78.0873 82.0775 78.9238 82.0775H94.6925V75.77H85.2313C84.3948 75.77 83.5927 75.4378 83.0012 74.8463C82.4098 74.2549 82.0775 73.4527 82.0775 72.6163C82.0775 71.7798 82.4098 70.9777 83.0012 70.3862C83.5927 69.7948 84.3948 69.4625 85.2313 69.4625H94.6925V63.155H63.155V70.0428C65.2593 70.7868 67.0327 72.2507 68.162 74.1757C69.2913 76.1008 69.7037 78.3631 69.3263 80.5629C68.9489 82.7626 67.806 84.7581 66.0996 86.1966C64.3932 87.6352 62.2331 88.4242 60.0013 88.4242C57.7694 88.4242 55.6094 87.6352 53.903 86.1966C52.1966 84.7581 51.0537 82.7626 50.6763 80.5629C50.2989 78.3631 50.7113 76.1008 51.8405 74.1757C52.9698 72.2507 54.7433 70.7868 56.8475 70.0428V60.0013C56.8475 59.1649 57.1798 58.3627 57.7712 57.7712C58.3627 57.1798 59.1649 56.8475 60.0013 56.8475H94.6925V9.54132C94.6925 8.70489 94.3602 7.90272 93.7688 7.31128C93.1774 6.71984 92.3752 6.38757 91.5388 6.38757ZM56.8475 41.0788C56.8475 41.7025 57.0325 42.3123 57.379 42.8309C57.7256 43.3496 58.2181 43.7538 58.7944 43.9925C59.3707 44.2312 60.0048 44.2936 60.6166 44.1719C61.2283 44.0503 61.7903 43.7499 62.2313 43.3088C62.6724 42.8678 62.9727 42.3058 63.0944 41.6941C63.2161 41.0823 63.1537 40.4482 62.915 39.8719C62.6763 39.2956 62.272 38.8031 61.7534 38.4565C61.2348 38.11 60.625 37.925 60.0013 37.925C59.1649 37.925 58.3627 38.2573 57.7712 38.8488C57.1798 39.4402 56.8475 40.2424 56.8475 41.0788ZM56.8475 78.9238C56.8475 79.5475 57.0325 80.1573 57.379 80.6759C57.7256 81.1945 58.2181 81.5988 58.7944 81.8375C59.3707 82.0761 60.0048 82.1386 60.6166 82.0169C61.2283 81.8952 61.7903 81.5949 62.2313 81.1538C62.6724 80.7127 62.9727 80.1508 63.0944 79.539C63.2161 78.9273 63.1537 78.2932 62.915 77.7169C62.6763 77.1406 62.272 76.6481 61.7534 76.3015C61.2348 75.955 60.625 75.77 60.0013 75.77C59.1649 75.77 58.3627 76.1023 57.7712 76.6937C57.1798 77.2852 56.8475 78.0873 56.8475 78.9238ZM78.9238 31.6176C76.9739 31.6095 75.0742 30.9992 73.4845 29.8701C71.8948 28.741 70.6927 27.1484 70.0428 25.3101H36.077L25.3101 36.077V70.0428C27.4143 70.7868 29.1878 72.2507 30.317 74.1757C31.4463 76.1008 31.8587 78.3631 31.4813 80.5629C31.1039 82.7626 29.961 84.7581 28.2546 86.1966C26.5482 87.6352 24.3882 88.4242 22.1563 88.4242C19.9244 88.4242 17.7644 87.6352 16.058 86.1966C14.3516 84.7581 13.2087 82.7626 12.8313 80.5629C12.4539 78.3631 12.8663 76.1008 13.9956 74.1757C15.1249 72.2507 16.8983 70.7868 19.0026 70.0428V34.7713C19.0018 34.3569 19.0828 33.9464 19.2408 33.5632C19.3988 33.1801 19.6308 32.8319 19.9235 32.5384L32.5384 19.9235C32.8319 19.6308 33.1801 19.3988 33.5632 19.2408C33.9464 19.0828 34.3569 19.0018 34.7713 19.0026H70.0428C70.6216 17.3657 71.6396 15.9196 72.9854 14.8226C74.3312 13.7257 75.9529 13.0203 77.6729 12.7835C79.3928 12.5468 81.1448 12.7879 82.7369 13.4804C84.329 14.173 85.6998 15.2903 86.6993 16.71C87.6988 18.1297 88.2883 19.797 88.4034 21.5294C88.5184 23.2618 88.1546 24.9924 87.3517 26.5318C86.5487 28.0712 85.3377 29.36 83.8512 30.257C82.3647 31.154 80.66 31.6247 78.9238 31.6176ZM22.1563 82.0775C22.7801 82.0775 23.3898 81.8926 23.9084 81.546C24.4271 81.1995 24.8313 80.7069 25.07 80.1307C25.3087 79.5544 25.3711 78.9203 25.2495 78.3085C25.1278 77.6967 24.8274 77.1348 24.3863 76.6937C23.9453 76.2527 23.3833 75.9523 22.7716 75.8306C22.1598 75.7089 21.5257 75.7714 20.9494 76.0101C20.3732 76.2488 19.8806 76.653 19.5341 77.1716C19.1875 77.6903 19.0026 78.3 19.0026 78.9238C19.0026 79.7602 19.3348 80.5624 19.9263 81.1538C20.5177 81.7452 21.3199 82.0775 22.1563 82.0775ZM78.9238 19.0026C78.3 19.0026 77.6903 19.1875 77.1716 19.5341C76.653 19.8806 76.2488 20.3732 76.0101 20.9494C75.7714 21.5257 75.7089 22.1598 75.8306 22.7716C75.9523 23.3833 76.2527 23.9453 76.6937 24.3863C77.1348 24.8274 77.6967 25.1278 78.3085 25.2495C78.9203 25.3711 79.5544 25.3087 80.1307 25.07C80.7069 24.8313 81.1995 24.4271 81.546 23.9084C81.8925 23.3898 82.0775 22.7801 82.0775 22.1563C82.0775 21.3199 81.7452 20.5177 81.1538 19.9263C80.5624 19.3348 79.7602 19.0026 78.9238 19.0026Z" fill="black"/>
</svg>
