<svg width="48" height="26" viewBox="0 0 48 26" fill="none" xmlns="http://www.w3.org/2000/svg">
<path d="M24.0001 20.9759L3.63711 1.16126C3.47301 0.998121 3.27818 0.869148 3.06391 0.781802C2.84964 0.694456 2.62017 0.650469 2.38878 0.652391C2.1574 0.654313 1.92869 0.702105 1.7159 0.792999C1.5031 0.883894 1.31045 1.01609 1.14908 1.18193C0.987713 1.34777 0.860837 1.54396 0.775795 1.75916C0.690752 1.97436 0.649232 2.20429 0.653636 2.43564C0.658041 2.667 0.708283 2.89518 0.801456 3.10698C0.894628 3.31879 1.02888 3.51001 1.19644 3.66959L22.7798 24.6696C23.1065 24.9874 23.5443 25.1653 24.0001 25.1653C24.4559 25.1653 24.8937 24.9874 25.2204 24.6696L46.8038 3.66959C46.9713 3.51001 47.1056 3.31879 47.1988 3.10698C47.2919 2.89517 47.3422 2.66699 47.3466 2.43564C47.351 2.20429 47.3095 1.97436 47.2244 1.75916C47.1394 1.54396 47.0125 1.34777 46.8511 1.18192C46.6898 1.01608 46.4971 0.883892 46.2843 0.792997C46.0715 0.702103 45.8428 0.654311 45.6114 0.652389C45.3801 0.650467 45.1506 0.694454 44.9363 0.7818C44.722 0.869147 44.5272 0.998119 44.3631 1.16126L24.0001 20.9759Z" fill="#FFF199"/>
</svg>
