<svg width="70" height="70" viewBox="0 0 82 79" fill="none" xmlns="http://www.w3.org/2000/svg">
<g filter="url(#filter0_d_13_792)">
<path d="M60.9689 37.4464L52.5126 44.8264L55.0458 55.8139C55.1798 56.3883 55.1416 56.9894 54.9358 57.5422C54.73 58.095 54.3659 58.5748 53.8889 58.9218C53.4119 59.2687 52.8432 59.4673 52.2539 59.4928C51.6647 59.5183 51.0809 59.3696 50.5758 59.0651L40.9926 53.2526L31.4301 59.0651C30.925 59.3696 30.3412 59.5183 29.752 59.4928C29.1627 59.4673 28.594 59.2687 28.117 58.9218C27.64 58.5748 27.2759 58.095 27.0701 57.5422C26.8643 56.9894 26.8261 56.3883 26.9601 55.8139L29.4895 44.8376L21.0314 37.4464C20.584 37.0605 20.2605 36.5512 20.1015 35.9823C19.9424 35.4133 19.9549 34.8101 20.1373 34.2482C20.3198 33.6863 20.664 33.1908 21.1269 32.8238C21.5899 32.4568 22.1508 32.2346 22.7395 32.1851L33.8883 31.2195L38.2401 20.8395C38.4674 20.2948 38.8507 19.8296 39.3419 19.5023C39.833 19.1751 40.41 19.0005 41.0001 19.0005C41.5903 19.0005 42.1673 19.1751 42.6584 19.5023C43.1495 19.8296 43.5329 20.2948 43.7601 20.8395L48.1251 31.2195L59.2701 32.1851C59.8588 32.2346 60.4198 32.4568 60.8827 32.8238C61.3456 33.1908 61.6899 33.6863 61.8723 34.2482C62.0547 34.8101 62.0672 35.4133 61.9082 35.9823C61.7491 36.5512 61.4256 37.0605 60.9783 37.4464H60.9689Z" fill="#FCF076"/>
</g>
<defs>
<filter id="filter0_d_13_792" x="0.990723" y="0.000488281" width="80.0283" height="78.4951" filterUnits="userSpaceOnUse" color-interpolation-filters="sRGB">
<feFlood flood-opacity="0" result="BackgroundImageFix"/>
<feColorMatrix in="SourceAlpha" type="matrix" values="0 0 0 0 0 0 0 0 0 0 0 0 0 0 0 0 0 0 127 0" result="hardAlpha"/>
<feOffset/>
<feGaussianBlur stdDeviation="9.5"/>
<feComposite in2="hardAlpha" operator="out"/>
<feColorMatrix type="matrix" values="0 0 0 0 1 0 0 0 0 0.762 0 0 0 0 0.3 0 0 0 1 0"/>
<feBlend mode="normal" in2="BackgroundImageFix" result="effect1_dropShadow_13_792"/>
<feBlend mode="normal" in="SourceGraphic" in2="effect1_dropShadow_13_792" result="shape"/>
</filter>
</defs>
</svg>
